<mxfile host="Electron" agent="Mozilla/5.0 (Windows NT 10.0; Win64; x64) AppleWebKit/537.36 (KHTML, like Gecko) draw.io/28.2.5 Chrome/138.0.7204.251 Electron/37.6.1 Safari/537.36" version="28.2.5">
  <diagram name="Page-1" id="zGWrGJ0KnjRnt5XvjetG">
    <mxGraphModel dx="2396" dy="1414" grid="0" gridSize="10" guides="1" tooltips="1" connect="1" arrows="1" fold="1" page="1" pageScale="1" pageWidth="3311" pageHeight="1654" math="0" shadow="0">
      <root>
        <mxCell id="0" />
        <mxCell id="1" parent="0" />
        <mxCell id="30pxRHg9Fm9ib9L_n-xo-12" style="edgeStyle=orthogonalEdgeStyle;rounded=0;orthogonalLoop=1;jettySize=auto;html=1;entryX=0.5;entryY=0;entryDx=0;entryDy=0;" parent="1" source="30pxRHg9Fm9ib9L_n-xo-1" target="30pxRHg9Fm9ib9L_n-xo-5" edge="1">
          <mxGeometry relative="1" as="geometry" />
        </mxCell>
        <mxCell id="30pxRHg9Fm9ib9L_n-xo-1" value="ifc_class" style="strokeWidth=2;html=1;shape=mxgraph.flowchart.start_2;whiteSpace=wrap;fillColor=#e3c800;strokeColor=#B09500;fontColor=#000000;" parent="1" vertex="1">
          <mxGeometry x="174" y="377" width="100" height="100" as="geometry" />
        </mxCell>
        <mxCell id="30pxRHg9Fm9ib9L_n-xo-13" style="edgeStyle=orthogonalEdgeStyle;rounded=0;orthogonalLoop=1;jettySize=auto;html=1;entryX=0.5;entryY=0;entryDx=0;entryDy=0;" parent="1" source="30pxRHg9Fm9ib9L_n-xo-5" target="30pxRHg9Fm9ib9L_n-xo-7" edge="1">
          <mxGeometry relative="1" as="geometry" />
        </mxCell>
        <mxCell id="30pxRHg9Fm9ib9L_n-xo-5" value="COLLECT:&lt;div&gt;IFCClass Types&lt;br&gt;IFCClass Materials&lt;/div&gt;" style="verticalLabelPosition=bottom;verticalAlign=top;html=1;shape=hexagon;perimeter=hexagonPerimeter2;arcSize=6;size=0.2300006103515625;" parent="1" vertex="1">
          <mxGeometry x="174" y="555" width="100" height="60" as="geometry" />
        </mxCell>
        <mxCell id="30pxRHg9Fm9ib9L_n-xo-14" style="edgeStyle=orthogonalEdgeStyle;rounded=0;orthogonalLoop=1;jettySize=auto;html=1;" parent="1" source="30pxRHg9Fm9ib9L_n-xo-7" target="30pxRHg9Fm9ib9L_n-xo-8" edge="1">
          <mxGeometry relative="1" as="geometry" />
        </mxCell>
        <mxCell id="30pxRHg9Fm9ib9L_n-xo-7" value="USER SELECT:&lt;div&gt;IFCClass Types&lt;/div&gt;&lt;div&gt;IFCClass Materials&lt;/div&gt;" style="html=1;strokeWidth=2;shape=manualInput;whiteSpace=wrap;rounded=1;size=0;arcSize=22;fillColor=#dae8fc;strokeColor=#6c8ebf;" parent="1" vertex="1">
          <mxGeometry x="129" y="700" width="189" height="60" as="geometry" />
        </mxCell>
        <mxCell id="30pxRHg9Fm9ib9L_n-xo-15" style="edgeStyle=orthogonalEdgeStyle;rounded=0;orthogonalLoop=1;jettySize=auto;html=1;entryX=0.5;entryY=0;entryDx=0;entryDy=0;" parent="1" source="30pxRHg9Fm9ib9L_n-xo-8" target="30pxRHg9Fm9ib9L_n-xo-9" edge="1">
          <mxGeometry relative="1" as="geometry" />
        </mxCell>
        <mxCell id="30pxRHg9Fm9ib9L_n-xo-8" value="IDENTIFY&amp;nbsp;&lt;div&gt;Existing PSETS&lt;/div&gt;" style="verticalLabelPosition=bottom;verticalAlign=top;html=1;shape=hexagon;perimeter=hexagonPerimeter2;arcSize=6;size=0.27;" parent="1" vertex="1">
          <mxGeometry x="174" y="819" width="100" height="60" as="geometry" />
        </mxCell>
        <mxCell id="30pxRHg9Fm9ib9L_n-xo-9" value="DICTIONARY" style="shape=parallelogram;html=1;strokeWidth=2;perimeter=parallelogramPerimeter;whiteSpace=wrap;rounded=1;arcSize=12;size=0.23;fillColor=#6a00ff;strokeColor=#3700CC;fontColor=#ffffff;" parent="1" vertex="1">
          <mxGeometry x="135.5" y="1128" width="176" height="36" as="geometry" />
        </mxCell>
        <mxCell id="30pxRHg9Fm9ib9L_n-xo-10" value="TYPE / MATERIAL" style="strokeWidth=2;html=1;shape=mxgraph.flowchart.decision;whiteSpace=wrap;fillColor=#ffe6cc;strokeColor=#d79b00;" parent="1" vertex="1">
          <mxGeometry x="1760" y="546" width="100" height="100" as="geometry" />
        </mxCell>
        <mxCell id="30pxRHg9Fm9ib9L_n-xo-16" value="target_label" style="strokeWidth=2;html=1;shape=mxgraph.flowchart.start_2;whiteSpace=wrap;fillColor=#e3c800;strokeColor=#B09500;fontColor=#000000;" parent="1" vertex="1">
          <mxGeometry x="1760" y="377" width="100" height="100" as="geometry" />
        </mxCell>
        <mxCell id="0rWULEDfACyBqYcY1xk1-1" value="ifc_exists" style="strokeWidth=2;html=1;shape=mxgraph.flowchart.decision;whiteSpace=wrap;fillColor=#e3c800;strokeColor=#B09500;fontColor=#000000;" parent="1" vertex="1">
          <mxGeometry x="1017" y="696" width="85" height="84" as="geometry" />
        </mxCell>
        <mxCell id="0rWULEDfACyBqYcY1xk1-33" style="edgeStyle=orthogonalEdgeStyle;rounded=0;orthogonalLoop=1;jettySize=auto;html=1;entryX=0.5;entryY=0;entryDx=0;entryDy=0;" parent="1" source="0rWULEDfACyBqYcY1xk1-2" target="0rWULEDfACyBqYcY1xk1-5" edge="1">
          <mxGeometry relative="1" as="geometry" />
        </mxCell>
        <mxCell id="0rWULEDfACyBqYcY1xk1-97" value="&lt;font style=&quot;font-size: 30px; color: rgb(204, 0, 0);&quot;&gt;&lt;b&gt;NO&lt;/b&gt;&lt;/font&gt;" style="edgeLabel;html=1;align=center;verticalAlign=middle;resizable=0;points=[];" parent="0rWULEDfACyBqYcY1xk1-33" vertex="1" connectable="0">
          <mxGeometry x="-0.5004" y="3" relative="1" as="geometry">
            <mxPoint y="-1" as="offset" />
          </mxGeometry>
        </mxCell>
        <mxCell id="0rWULEDfACyBqYcY1xk1-2" value="etim_exists" style="strokeWidth=2;html=1;shape=mxgraph.flowchart.decision;whiteSpace=wrap;fillColor=#e3c800;strokeColor=#B09500;fontColor=#000000;" parent="1" vertex="1">
          <mxGeometry x="657" y="810" width="92" height="82" as="geometry" />
        </mxCell>
        <mxCell id="0rWULEDfACyBqYcY1xk1-3" style="edgeStyle=orthogonalEdgeStyle;rounded=0;orthogonalLoop=1;jettySize=auto;html=1;entryX=0.5;entryY=0;entryDx=0;entryDy=0;entryPerimeter=0;" parent="1" source="0rWULEDfACyBqYcY1xk1-1" target="0rWULEDfACyBqYcY1xk1-2" edge="1">
          <mxGeometry relative="1" as="geometry" />
        </mxCell>
        <mxCell id="0rWULEDfACyBqYcY1xk1-96" value="&lt;font style=&quot;font-size: 30px; color: rgb(204, 0, 0);&quot;&gt;&lt;b&gt;NO&lt;/b&gt;&lt;/font&gt;" style="edgeLabel;html=1;align=center;verticalAlign=middle;resizable=0;points=[];" parent="0rWULEDfACyBqYcY1xk1-3" vertex="1" connectable="0">
          <mxGeometry x="-0.1883" relative="1" as="geometry">
            <mxPoint as="offset" />
          </mxGeometry>
        </mxCell>
        <mxCell id="0rWULEDfACyBqYcY1xk1-35" style="edgeStyle=orthogonalEdgeStyle;rounded=0;orthogonalLoop=1;jettySize=auto;html=1;exitX=0;exitY=0.5;exitDx=0;exitDy=0;exitPerimeter=0;entryX=0.5;entryY=0;entryDx=0;entryDy=0;" parent="1" source="0rWULEDfACyBqYcY1xk1-4" target="0rWULEDfACyBqYcY1xk1-19" edge="1">
          <mxGeometry relative="1" as="geometry" />
        </mxCell>
        <mxCell id="0rWULEDfACyBqYcY1xk1-99" value="&lt;font style=&quot;font-size: 30px; color: rgb(204, 0, 0);&quot;&gt;&lt;b&gt;NO&lt;/b&gt;&lt;/font&gt;" style="edgeLabel;html=1;align=center;verticalAlign=middle;resizable=0;points=[];" parent="0rWULEDfACyBqYcY1xk1-35" vertex="1" connectable="0">
          <mxGeometry x="-0.668" y="1" relative="1" as="geometry">
            <mxPoint y="1" as="offset" />
          </mxGeometry>
        </mxCell>
        <mxCell id="0rWULEDfACyBqYcY1xk1-36" style="edgeStyle=orthogonalEdgeStyle;rounded=0;orthogonalLoop=1;jettySize=auto;html=1;exitX=1;exitY=0.5;exitDx=0;exitDy=0;exitPerimeter=0;entryX=0.5;entryY=0;entryDx=0;entryDy=0;" parent="1" source="0rWULEDfACyBqYcY1xk1-4" target="0rWULEDfACyBqYcY1xk1-23" edge="1">
          <mxGeometry relative="1" as="geometry">
            <mxPoint x="1040" y="1136" as="targetPoint" />
            <mxPoint x="927" y="1003" as="sourcePoint" />
          </mxGeometry>
        </mxCell>
        <mxCell id="0rWULEDfACyBqYcY1xk1-100" value="&lt;font style=&quot;font-size: 30px;&quot;&gt;&lt;b&gt;YES&lt;/b&gt;&lt;/font&gt;" style="edgeLabel;html=1;align=center;verticalAlign=middle;resizable=0;points=[];" parent="0rWULEDfACyBqYcY1xk1-36" vertex="1" connectable="0">
          <mxGeometry x="-0.6039" y="-2" relative="1" as="geometry">
            <mxPoint x="1" as="offset" />
          </mxGeometry>
        </mxCell>
        <mxCell id="0rWULEDfACyBqYcY1xk1-4" value="ALREADY&lt;div&gt;etim_class_guid&lt;/div&gt;" style="strokeWidth=2;html=1;shape=mxgraph.flowchart.decision;whiteSpace=wrap;fillColor=#ffe6cc;strokeColor=#d79b00;" parent="1" vertex="1">
          <mxGeometry x="812" y="931" width="117" height="112" as="geometry" />
        </mxCell>
        <mxCell id="0rWULEDfACyBqYcY1xk1-5" value="&lt;b&gt;&lt;font style=&quot;font-size: 20px;&quot;&gt;CONTINUE LOOP&lt;/font&gt;&lt;/b&gt;" style="rounded=1;whiteSpace=wrap;html=1;absoluteArcSize=1;arcSize=14;strokeWidth=2;fillColor=#d80073;strokeColor=#A50040;fontColor=#ffffff;" parent="1" vertex="1">
          <mxGeometry x="421" y="932" width="198" height="40" as="geometry" />
        </mxCell>
        <mxCell id="0rWULEDfACyBqYcY1xk1-42" style="edgeStyle=orthogonalEdgeStyle;rounded=0;orthogonalLoop=1;jettySize=auto;html=1;entryX=0.5;entryY=0;entryDx=0;entryDy=0;" parent="1" source="0rWULEDfACyBqYcY1xk1-12" target="0rWULEDfACyBqYcY1xk1-25" edge="1">
          <mxGeometry relative="1" as="geometry">
            <Array as="points">
              <mxPoint x="1271" y="987" />
            </Array>
          </mxGeometry>
        </mxCell>
        <mxCell id="0rWULEDfACyBqYcY1xk1-101" value="&lt;font style=&quot;font-size: 30px; color: rgb(204, 0, 0);&quot;&gt;&lt;b&gt;NO&lt;/b&gt;&lt;/font&gt;" style="edgeLabel;html=1;align=center;verticalAlign=middle;resizable=0;points=[];" parent="0rWULEDfACyBqYcY1xk1-42" vertex="1" connectable="0">
          <mxGeometry x="-0.6713" y="1" relative="1" as="geometry">
            <mxPoint as="offset" />
          </mxGeometry>
        </mxCell>
        <mxCell id="0rWULEDfACyBqYcY1xk1-43" style="edgeStyle=orthogonalEdgeStyle;rounded=0;orthogonalLoop=1;jettySize=auto;html=1;exitX=1;exitY=0.5;exitDx=0;exitDy=0;exitPerimeter=0;entryX=0.5;entryY=0;entryDx=0;entryDy=0;" parent="1" source="0rWULEDfACyBqYcY1xk1-12" target="0rWULEDfACyBqYcY1xk1-29" edge="1">
          <mxGeometry relative="1" as="geometry" />
        </mxCell>
        <mxCell id="0rWULEDfACyBqYcY1xk1-102" value="&lt;font style=&quot;font-size: 30px;&quot;&gt;&lt;b&gt;YES&lt;/b&gt;&lt;/font&gt;" style="edgeLabel;html=1;align=center;verticalAlign=middle;resizable=0;points=[];" parent="0rWULEDfACyBqYcY1xk1-43" vertex="1" connectable="0">
          <mxGeometry x="-0.6196" y="1" relative="1" as="geometry">
            <mxPoint as="offset" />
          </mxGeometry>
        </mxCell>
        <mxCell id="0rWULEDfACyBqYcY1xk1-12" value="ALREADY&lt;div&gt;ifc_pset_guid&lt;/div&gt;" style="strokeWidth=2;html=1;shape=mxgraph.flowchart.decision;whiteSpace=wrap;fillColor=#ffe6cc;strokeColor=#d79b00;" parent="1" vertex="1">
          <mxGeometry x="1368" y="931" width="115" height="111" as="geometry" />
        </mxCell>
        <mxCell id="0rWULEDfACyBqYcY1xk1-37" style="edgeStyle=orthogonalEdgeStyle;rounded=0;orthogonalLoop=1;jettySize=auto;html=1;exitX=0.5;exitY=1;exitDx=0;exitDy=0;entryX=0.5;entryY=0;entryDx=0;entryDy=0;" parent="1" source="0rWULEDfACyBqYcY1xk1-19" target="0rWULEDfACyBqYcY1xk1-20" edge="1">
          <mxGeometry relative="1" as="geometry" />
        </mxCell>
        <mxCell id="0rWULEDfACyBqYcY1xk1-19" value="ETIM CLASS" style="shape=parallelogram;html=1;strokeWidth=2;perimeter=parallelogramPerimeter;whiteSpace=wrap;rounded=1;arcSize=12;size=0.23;fillColor=#1ba1e2;fontColor=#ffffff;strokeColor=#006EAF;" parent="1" vertex="1">
          <mxGeometry x="613" y="1163" width="202" height="33" as="geometry" />
        </mxCell>
        <mxCell id="0rWULEDfACyBqYcY1xk1-38" style="edgeStyle=orthogonalEdgeStyle;rounded=0;orthogonalLoop=1;jettySize=auto;html=1;exitX=0.5;exitY=1;exitDx=0;exitDy=0;entryX=0.5;entryY=0;entryDx=0;entryDy=0;" parent="1" source="0rWULEDfACyBqYcY1xk1-20" target="0rWULEDfACyBqYcY1xk1-21" edge="1">
          <mxGeometry relative="1" as="geometry">
            <mxPoint x="714" y="1275" as="sourcePoint" />
          </mxGeometry>
        </mxCell>
        <mxCell id="0rWULEDfACyBqYcY1xk1-20" value="ETIM PROPERTY" style="shape=parallelogram;html=1;strokeWidth=2;perimeter=parallelogramPerimeter;whiteSpace=wrap;rounded=1;arcSize=12;size=0.23;fillColor=#1ba1e2;fontColor=#ffffff;strokeColor=#006EAF;" parent="1" vertex="1">
          <mxGeometry x="613" y="1217" width="202" height="33" as="geometry" />
        </mxCell>
        <mxCell id="0rWULEDfACyBqYcY1xk1-40" style="edgeStyle=orthogonalEdgeStyle;rounded=0;orthogonalLoop=1;jettySize=auto;html=1;exitX=0.5;exitY=1;exitDx=0;exitDy=0;entryX=0.5;entryY=0;entryDx=0;entryDy=0;" parent="1" source="0rWULEDfACyBqYcY1xk1-21" target="0rWULEDfACyBqYcY1xk1-22" edge="1">
          <mxGeometry relative="1" as="geometry" />
        </mxCell>
        <mxCell id="0rWULEDfACyBqYcY1xk1-21" value="EDGE&lt;div&gt;FROM: ETIM CLASS&lt;/div&gt;&lt;div&gt;TO: IFC MATERIAL&lt;/div&gt;" style="shape=parallelogram;html=1;strokeWidth=2;perimeter=parallelogramPerimeter;whiteSpace=wrap;rounded=1;arcSize=12;size=0.23;fillColor=#60a917;fontColor=#ffffff;strokeColor=#2D7600;" parent="1" vertex="1">
          <mxGeometry x="613" y="1296" width="202" height="57" as="geometry" />
        </mxCell>
        <mxCell id="0rWULEDfACyBqYcY1xk1-22" value="EDGE&lt;div&gt;FROM: ETIM PROPERTY&lt;/div&gt;&lt;div&gt;TO: ETIM CLASS&lt;/div&gt;" style="shape=parallelogram;html=1;strokeWidth=2;perimeter=parallelogramPerimeter;whiteSpace=wrap;rounded=1;arcSize=12;size=0.23;fillColor=#60a917;fontColor=#ffffff;strokeColor=#2D7600;" parent="1" vertex="1">
          <mxGeometry x="613" y="1374" width="202" height="57" as="geometry" />
        </mxCell>
        <mxCell id="0rWULEDfACyBqYcY1xk1-41" style="edgeStyle=orthogonalEdgeStyle;rounded=0;orthogonalLoop=1;jettySize=auto;html=1;exitX=0.5;exitY=1;exitDx=0;exitDy=0;entryX=0.5;entryY=0;entryDx=0;entryDy=0;" parent="1" source="0rWULEDfACyBqYcY1xk1-23" target="0rWULEDfACyBqYcY1xk1-24" edge="1">
          <mxGeometry relative="1" as="geometry" />
        </mxCell>
        <mxCell id="0rWULEDfACyBqYcY1xk1-23" value="ETIM PROPERTY" style="shape=parallelogram;html=1;strokeWidth=2;perimeter=parallelogramPerimeter;whiteSpace=wrap;rounded=1;arcSize=12;size=0.23;fillColor=#1ba1e2;fontColor=#ffffff;strokeColor=#006EAF;" parent="1" vertex="1">
          <mxGeometry x="930" y="1168" width="202" height="33" as="geometry" />
        </mxCell>
        <mxCell id="0rWULEDfACyBqYcY1xk1-24" value="EDGE&lt;div&gt;FROM: ETIM PROPERTY&lt;/div&gt;&lt;div&gt;TO: ETIM CLASS&lt;/div&gt;" style="shape=parallelogram;html=1;strokeWidth=2;perimeter=parallelogramPerimeter;whiteSpace=wrap;rounded=1;arcSize=12;size=0.23;fillColor=#60a917;fontColor=#ffffff;strokeColor=#2D7600;" parent="1" vertex="1">
          <mxGeometry x="930" y="1296" width="202" height="57" as="geometry" />
        </mxCell>
        <mxCell id="0rWULEDfACyBqYcY1xk1-44" style="edgeStyle=orthogonalEdgeStyle;rounded=0;orthogonalLoop=1;jettySize=auto;html=1;exitX=0.5;exitY=1;exitDx=0;exitDy=0;entryX=0.5;entryY=0;entryDx=0;entryDy=0;" parent="1" source="0rWULEDfACyBqYcY1xk1-25" target="0rWULEDfACyBqYcY1xk1-26" edge="1">
          <mxGeometry relative="1" as="geometry" />
        </mxCell>
        <mxCell id="0rWULEDfACyBqYcY1xk1-25" value="IFC PSET" style="shape=parallelogram;html=1;strokeWidth=2;perimeter=parallelogramPerimeter;whiteSpace=wrap;rounded=1;arcSize=12;size=0.23;fillColor=#1ba1e2;fontColor=#ffffff;strokeColor=#006EAF;" parent="1" vertex="1">
          <mxGeometry x="1170" y="1167" width="202" height="33" as="geometry" />
        </mxCell>
        <mxCell id="0rWULEDfACyBqYcY1xk1-45" style="edgeStyle=orthogonalEdgeStyle;rounded=0;orthogonalLoop=1;jettySize=auto;html=1;exitX=0.5;exitY=1;exitDx=0;exitDy=0;entryX=0.5;entryY=0;entryDx=0;entryDy=0;" parent="1" source="0rWULEDfACyBqYcY1xk1-26" target="0rWULEDfACyBqYcY1xk1-27" edge="1">
          <mxGeometry relative="1" as="geometry" />
        </mxCell>
        <mxCell id="0rWULEDfACyBqYcY1xk1-26" value="IFC PROPERTY" style="shape=parallelogram;html=1;strokeWidth=2;perimeter=parallelogramPerimeter;whiteSpace=wrap;rounded=1;arcSize=12;size=0.23;fillColor=#1ba1e2;fontColor=#ffffff;strokeColor=#006EAF;" parent="1" vertex="1">
          <mxGeometry x="1170" y="1221" width="202" height="33" as="geometry" />
        </mxCell>
        <mxCell id="0rWULEDfACyBqYcY1xk1-46" style="edgeStyle=orthogonalEdgeStyle;rounded=0;orthogonalLoop=1;jettySize=auto;html=1;exitX=0.5;exitY=1;exitDx=0;exitDy=0;entryX=0.5;entryY=0;entryDx=0;entryDy=0;" parent="1" source="0rWULEDfACyBqYcY1xk1-27" target="0rWULEDfACyBqYcY1xk1-28" edge="1">
          <mxGeometry relative="1" as="geometry" />
        </mxCell>
        <mxCell id="0rWULEDfACyBqYcY1xk1-27" value="EDGE&lt;div&gt;FROM: IFC PSET&lt;/div&gt;&lt;div&gt;TO: IFC MATERIAL&lt;/div&gt;" style="shape=parallelogram;html=1;strokeWidth=2;perimeter=parallelogramPerimeter;whiteSpace=wrap;rounded=1;arcSize=12;size=0.23;fillColor=#60a917;fontColor=#ffffff;strokeColor=#2D7600;" parent="1" vertex="1">
          <mxGeometry x="1169.5" y="1296" width="202" height="57" as="geometry" />
        </mxCell>
        <mxCell id="0rWULEDfACyBqYcY1xk1-28" value="EDGE&lt;div&gt;FROM: ETIM PROPERTY&lt;/div&gt;&lt;div&gt;TO: IFC PSET&lt;/div&gt;" style="shape=parallelogram;html=1;strokeWidth=2;perimeter=parallelogramPerimeter;whiteSpace=wrap;rounded=1;arcSize=12;size=0.23;fillColor=#60a917;fontColor=#ffffff;strokeColor=#2D7600;" parent="1" vertex="1">
          <mxGeometry x="1170" y="1378" width="202" height="57" as="geometry" />
        </mxCell>
        <mxCell id="0rWULEDfACyBqYcY1xk1-47" style="edgeStyle=orthogonalEdgeStyle;rounded=0;orthogonalLoop=1;jettySize=auto;html=1;exitX=0.5;exitY=1;exitDx=0;exitDy=0;entryX=0.5;entryY=0;entryDx=0;entryDy=0;" parent="1" source="0rWULEDfACyBqYcY1xk1-29" target="0rWULEDfACyBqYcY1xk1-30" edge="1">
          <mxGeometry relative="1" as="geometry" />
        </mxCell>
        <mxCell id="0rWULEDfACyBqYcY1xk1-29" value="IFC PROPERTY" style="shape=parallelogram;html=1;strokeWidth=2;perimeter=parallelogramPerimeter;whiteSpace=wrap;rounded=1;arcSize=12;size=0.23;fillColor=#1ba1e2;fontColor=#ffffff;strokeColor=#006EAF;" parent="1" vertex="1">
          <mxGeometry x="1478" y="1163" width="202" height="33" as="geometry" />
        </mxCell>
        <mxCell id="0rWULEDfACyBqYcY1xk1-30" value="EDGE&lt;div&gt;FROM: IFC PROPERTY&lt;/div&gt;&lt;div&gt;TO: IFC PSET&lt;/div&gt;" style="shape=parallelogram;html=1;strokeWidth=2;perimeter=parallelogramPerimeter;whiteSpace=wrap;rounded=1;arcSize=12;size=0.23;fillColor=#60a917;fontColor=#ffffff;strokeColor=#2D7600;" parent="1" vertex="1">
          <mxGeometry x="1478" y="1296" width="202" height="57" as="geometry" />
        </mxCell>
        <mxCell id="0rWULEDfACyBqYcY1xk1-31" style="edgeStyle=orthogonalEdgeStyle;rounded=0;orthogonalLoop=1;jettySize=auto;html=1;entryX=0.5;entryY=0;entryDx=0;entryDy=0;entryPerimeter=0;" parent="1" source="30pxRHg9Fm9ib9L_n-xo-10" target="0rWULEDfACyBqYcY1xk1-1" edge="1">
          <mxGeometry relative="1" as="geometry" />
        </mxCell>
        <mxCell id="0rWULEDfACyBqYcY1xk1-91" value="&lt;font style=&quot;font-size: 30px;&quot;&gt;&lt;b&gt;MATERIAL&lt;/b&gt;&lt;/font&gt;" style="edgeLabel;html=1;align=center;verticalAlign=middle;resizable=0;points=[];" parent="0rWULEDfACyBqYcY1xk1-31" vertex="1" connectable="0">
          <mxGeometry x="-0.1713" relative="1" as="geometry">
            <mxPoint x="-1" as="offset" />
          </mxGeometry>
        </mxCell>
        <mxCell id="0rWULEDfACyBqYcY1xk1-32" style="edgeStyle=orthogonalEdgeStyle;rounded=0;orthogonalLoop=1;jettySize=auto;html=1;entryX=0.5;entryY=0;entryDx=0;entryDy=0;entryPerimeter=0;" parent="1" source="0rWULEDfACyBqYcY1xk1-1" target="0rWULEDfACyBqYcY1xk1-12" edge="1">
          <mxGeometry relative="1" as="geometry" />
        </mxCell>
        <mxCell id="0rWULEDfACyBqYcY1xk1-92" value="&lt;span style=&quot;font-size: 30px;&quot;&gt;&lt;b&gt;YES&lt;/b&gt;&lt;/span&gt;" style="edgeLabel;html=1;align=center;verticalAlign=middle;resizable=0;points=[];" parent="0rWULEDfACyBqYcY1xk1-32" vertex="1" connectable="0">
          <mxGeometry x="-0.2719" y="1" relative="1" as="geometry">
            <mxPoint as="offset" />
          </mxGeometry>
        </mxCell>
        <mxCell id="0rWULEDfACyBqYcY1xk1-34" style="edgeStyle=orthogonalEdgeStyle;rounded=0;orthogonalLoop=1;jettySize=auto;html=1;exitX=1;exitY=0.5;exitDx=0;exitDy=0;exitPerimeter=0;entryX=0.5;entryY=0;entryDx=0;entryDy=0;entryPerimeter=0;" parent="1" source="0rWULEDfACyBqYcY1xk1-2" target="0rWULEDfACyBqYcY1xk1-4" edge="1">
          <mxGeometry relative="1" as="geometry" />
        </mxCell>
        <mxCell id="0rWULEDfACyBqYcY1xk1-98" value="&lt;font style=&quot;font-size: 30px;&quot;&gt;&lt;b&gt;YES&lt;/b&gt;&lt;/font&gt;" style="edgeLabel;html=1;align=center;verticalAlign=middle;resizable=0;points=[];" parent="0rWULEDfACyBqYcY1xk1-34" vertex="1" connectable="0">
          <mxGeometry x="-0.1932" y="-1" relative="1" as="geometry">
            <mxPoint as="offset" />
          </mxGeometry>
        </mxCell>
        <mxCell id="0rWULEDfACyBqYcY1xk1-48" style="edgeStyle=orthogonalEdgeStyle;rounded=0;orthogonalLoop=1;jettySize=auto;html=1;exitX=0.5;exitY=1;exitDx=0;exitDy=0;exitPerimeter=0;entryX=0.5;entryY=0;entryDx=0;entryDy=0;entryPerimeter=0;" parent="1" source="30pxRHg9Fm9ib9L_n-xo-16" target="30pxRHg9Fm9ib9L_n-xo-10" edge="1">
          <mxGeometry relative="1" as="geometry" />
        </mxCell>
        <mxCell id="0rWULEDfACyBqYcY1xk1-49" value="ifc_exists" style="strokeWidth=2;html=1;shape=mxgraph.flowchart.decision;whiteSpace=wrap;fillColor=#e3c800;strokeColor=#B09500;fontColor=#000000;" parent="1" vertex="1">
          <mxGeometry x="2481" y="696" width="85" height="84" as="geometry" />
        </mxCell>
        <mxCell id="0rWULEDfACyBqYcY1xk1-50" style="edgeStyle=orthogonalEdgeStyle;rounded=0;orthogonalLoop=1;jettySize=auto;html=1;entryX=0.5;entryY=0;entryDx=0;entryDy=0;" parent="1" source="0rWULEDfACyBqYcY1xk1-51" target="0rWULEDfACyBqYcY1xk1-56" edge="1">
          <mxGeometry relative="1" as="geometry" />
        </mxCell>
        <mxCell id="0rWULEDfACyBqYcY1xk1-104" value="&lt;font style=&quot;font-size: 30px; color: rgb(204, 0, 0);&quot;&gt;&lt;b&gt;NO&lt;/b&gt;&lt;/font&gt;" style="edgeLabel;html=1;align=center;verticalAlign=middle;resizable=0;points=[];" parent="0rWULEDfACyBqYcY1xk1-50" vertex="1" connectable="0">
          <mxGeometry x="-0.4633" y="3" relative="1" as="geometry">
            <mxPoint x="-1" y="-1" as="offset" />
          </mxGeometry>
        </mxCell>
        <mxCell id="0rWULEDfACyBqYcY1xk1-51" value="etim_exists" style="strokeWidth=2;html=1;shape=mxgraph.flowchart.decision;whiteSpace=wrap;fillColor=#e3c800;strokeColor=#B09500;fontColor=#000000;" parent="1" vertex="1">
          <mxGeometry x="2130" y="810" width="85" height="82" as="geometry" />
        </mxCell>
        <mxCell id="0rWULEDfACyBqYcY1xk1-52" style="edgeStyle=orthogonalEdgeStyle;rounded=0;orthogonalLoop=1;jettySize=auto;html=1;entryX=0.5;entryY=0;entryDx=0;entryDy=0;entryPerimeter=0;" parent="1" source="0rWULEDfACyBqYcY1xk1-49" target="0rWULEDfACyBqYcY1xk1-51" edge="1">
          <mxGeometry relative="1" as="geometry" />
        </mxCell>
        <mxCell id="0rWULEDfACyBqYcY1xk1-103" value="&lt;font style=&quot;font-size: 30px; color: rgb(204, 0, 0);&quot;&gt;&lt;b&gt;NO&lt;/b&gt;&lt;/font&gt;" style="edgeLabel;html=1;align=center;verticalAlign=middle;resizable=0;points=[];" parent="0rWULEDfACyBqYcY1xk1-52" vertex="1" connectable="0">
          <mxGeometry x="-0.3351" y="1" relative="1" as="geometry">
            <mxPoint as="offset" />
          </mxGeometry>
        </mxCell>
        <mxCell id="0rWULEDfACyBqYcY1xk1-53" style="edgeStyle=orthogonalEdgeStyle;rounded=0;orthogonalLoop=1;jettySize=auto;html=1;exitX=0;exitY=0.5;exitDx=0;exitDy=0;exitPerimeter=0;entryX=0.5;entryY=0;entryDx=0;entryDy=0;" parent="1" source="0rWULEDfACyBqYcY1xk1-55" target="0rWULEDfACyBqYcY1xk1-61" edge="1">
          <mxGeometry relative="1" as="geometry" />
        </mxCell>
        <mxCell id="0rWULEDfACyBqYcY1xk1-105" value="&lt;font style=&quot;font-size: 30px; color: rgb(204, 0, 0);&quot;&gt;&lt;b&gt;NO&lt;/b&gt;&lt;/font&gt;" style="edgeLabel;html=1;align=center;verticalAlign=middle;resizable=0;points=[];" parent="0rWULEDfACyBqYcY1xk1-53" vertex="1" connectable="0">
          <mxGeometry x="-0.6687" y="3" relative="1" as="geometry">
            <mxPoint as="offset" />
          </mxGeometry>
        </mxCell>
        <mxCell id="0rWULEDfACyBqYcY1xk1-54" style="edgeStyle=orthogonalEdgeStyle;rounded=0;orthogonalLoop=1;jettySize=auto;html=1;exitX=1;exitY=0.5;exitDx=0;exitDy=0;exitPerimeter=0;entryX=0.5;entryY=0;entryDx=0;entryDy=0;" parent="1" source="0rWULEDfACyBqYcY1xk1-55" target="0rWULEDfACyBqYcY1xk1-68" edge="1">
          <mxGeometry relative="1" as="geometry">
            <mxPoint x="2504" y="1136" as="targetPoint" />
            <mxPoint x="2391" y="1003" as="sourcePoint" />
          </mxGeometry>
        </mxCell>
        <mxCell id="0rWULEDfACyBqYcY1xk1-109" value="&lt;font style=&quot;font-size: 30px;&quot;&gt;&lt;b&gt;YES&lt;/b&gt;&lt;/font&gt;" style="edgeLabel;html=1;align=center;verticalAlign=middle;resizable=0;points=[];" parent="0rWULEDfACyBqYcY1xk1-54" vertex="1" connectable="0">
          <mxGeometry x="-0.677" relative="1" as="geometry">
            <mxPoint as="offset" />
          </mxGeometry>
        </mxCell>
        <mxCell id="0rWULEDfACyBqYcY1xk1-88" style="edgeStyle=orthogonalEdgeStyle;rounded=0;orthogonalLoop=1;jettySize=auto;html=1;entryX=0.5;entryY=1;entryDx=0;entryDy=0;startArrow=classic;startFill=1;endArrow=none;endFill=0;dashed=1;dashPattern=12 12;" parent="1" source="0rWULEDfACyBqYcY1xk1-55" target="30pxRHg9Fm9ib9L_n-xo-9" edge="1">
          <mxGeometry relative="1" as="geometry">
            <Array as="points">
              <mxPoint x="2335" y="1506" />
              <mxPoint x="224" y="1506" />
            </Array>
          </mxGeometry>
        </mxCell>
        <mxCell id="u5JIoC_9zxZFoy5GMLDi-9" value="&lt;font style=&quot;font-size: 20px; color: rgb(128, 128, 128);&quot;&gt;CHECK&lt;/font&gt;" style="edgeLabel;html=1;align=center;verticalAlign=middle;resizable=0;points=[];" parent="0rWULEDfACyBqYcY1xk1-88" vertex="1" connectable="0">
          <mxGeometry x="-0.8341" y="-1" relative="1" as="geometry">
            <mxPoint as="offset" />
          </mxGeometry>
        </mxCell>
        <mxCell id="0rWULEDfACyBqYcY1xk1-55" value="ALREADY&lt;div&gt;etim_class_guid&lt;/div&gt;" style="strokeWidth=2;html=1;shape=mxgraph.flowchart.decision;whiteSpace=wrap;fillColor=#ffe6cc;strokeColor=#d79b00;" parent="1" vertex="1">
          <mxGeometry x="2277" y="931" width="116" height="108" as="geometry" />
        </mxCell>
        <mxCell id="0rWULEDfACyBqYcY1xk1-56" value="&lt;b&gt;&lt;font style=&quot;font-size: 20px;&quot;&gt;CONTINUE LOOP&lt;/font&gt;&lt;/b&gt;" style="rounded=1;whiteSpace=wrap;html=1;absoluteArcSize=1;arcSize=14;strokeWidth=2;fillColor=#d80073;strokeColor=#A50040;fontColor=#ffffff;" parent="1" vertex="1">
          <mxGeometry x="1899" y="932" width="184" height="40" as="geometry" />
        </mxCell>
        <mxCell id="0rWULEDfACyBqYcY1xk1-57" style="edgeStyle=orthogonalEdgeStyle;rounded=0;orthogonalLoop=1;jettySize=auto;html=1;entryX=0.5;entryY=0;entryDx=0;entryDy=0;" parent="1" source="0rWULEDfACyBqYcY1xk1-59" target="0rWULEDfACyBqYcY1xk1-71" edge="1">
          <mxGeometry relative="1" as="geometry">
            <Array as="points">
              <mxPoint x="2735" y="984" />
            </Array>
          </mxGeometry>
        </mxCell>
        <mxCell id="0rWULEDfACyBqYcY1xk1-106" value="&lt;font style=&quot;font-size: 30px; color: rgb(204, 0, 0);&quot;&gt;&lt;b&gt;NO&lt;/b&gt;&lt;/font&gt;" style="edgeLabel;html=1;align=center;verticalAlign=middle;resizable=0;points=[];" parent="0rWULEDfACyBqYcY1xk1-57" vertex="1" connectable="0">
          <mxGeometry x="-0.6627" y="-1" relative="1" as="geometry">
            <mxPoint as="offset" />
          </mxGeometry>
        </mxCell>
        <mxCell id="0rWULEDfACyBqYcY1xk1-58" style="edgeStyle=orthogonalEdgeStyle;rounded=0;orthogonalLoop=1;jettySize=auto;html=1;exitX=1;exitY=0.5;exitDx=0;exitDy=0;exitPerimeter=0;entryX=0.5;entryY=0;entryDx=0;entryDy=0;" parent="1" source="0rWULEDfACyBqYcY1xk1-59" target="0rWULEDfACyBqYcY1xk1-78" edge="1">
          <mxGeometry relative="1" as="geometry" />
        </mxCell>
        <mxCell id="0rWULEDfACyBqYcY1xk1-110" value="&lt;font style=&quot;font-size: 30px;&quot;&gt;&lt;b&gt;YES&lt;/b&gt;&lt;/font&gt;" style="edgeLabel;html=1;align=center;verticalAlign=middle;resizable=0;points=[];" parent="0rWULEDfACyBqYcY1xk1-58" vertex="1" connectable="0">
          <mxGeometry x="-0.6559" y="1" relative="1" as="geometry">
            <mxPoint as="offset" />
          </mxGeometry>
        </mxCell>
        <mxCell id="0rWULEDfACyBqYcY1xk1-59" value="ALREADY&lt;div&gt;ifc_pset_guid&lt;/div&gt;" style="strokeWidth=2;html=1;shape=mxgraph.flowchart.decision;whiteSpace=wrap;fillColor=#ffe6cc;strokeColor=#d79b00;" parent="1" vertex="1">
          <mxGeometry x="2832" y="931" width="115" height="106" as="geometry" />
        </mxCell>
        <mxCell id="0rWULEDfACyBqYcY1xk1-60" style="edgeStyle=orthogonalEdgeStyle;rounded=0;orthogonalLoop=1;jettySize=auto;html=1;exitX=0.5;exitY=1;exitDx=0;exitDy=0;entryX=0.5;entryY=0;entryDx=0;entryDy=0;" parent="1" source="0rWULEDfACyBqYcY1xk1-61" target="0rWULEDfACyBqYcY1xk1-63" edge="1">
          <mxGeometry relative="1" as="geometry" />
        </mxCell>
        <mxCell id="0rWULEDfACyBqYcY1xk1-61" value="ETIM CLASS" style="shape=parallelogram;html=1;strokeWidth=2;perimeter=parallelogramPerimeter;whiteSpace=wrap;rounded=1;arcSize=12;size=0.23;fillColor=#1ba1e2;fontColor=#ffffff;strokeColor=#006EAF;" parent="1" vertex="1">
          <mxGeometry x="2077" y="1163" width="202" height="33" as="geometry" />
        </mxCell>
        <mxCell id="0rWULEDfACyBqYcY1xk1-62" style="edgeStyle=orthogonalEdgeStyle;rounded=0;orthogonalLoop=1;jettySize=auto;html=1;exitX=0.5;exitY=1;exitDx=0;exitDy=0;entryX=0.5;entryY=0;entryDx=0;entryDy=0;" parent="1" source="0rWULEDfACyBqYcY1xk1-63" target="0rWULEDfACyBqYcY1xk1-65" edge="1">
          <mxGeometry relative="1" as="geometry">
            <mxPoint x="2178" y="1275" as="sourcePoint" />
          </mxGeometry>
        </mxCell>
        <mxCell id="0rWULEDfACyBqYcY1xk1-63" value="ETIM PROPERTY" style="shape=parallelogram;html=1;strokeWidth=2;perimeter=parallelogramPerimeter;whiteSpace=wrap;rounded=1;arcSize=12;size=0.23;fillColor=#1ba1e2;fontColor=#ffffff;strokeColor=#006EAF;" parent="1" vertex="1">
          <mxGeometry x="2077" y="1217" width="202" height="33" as="geometry" />
        </mxCell>
        <mxCell id="0rWULEDfACyBqYcY1xk1-64" style="edgeStyle=orthogonalEdgeStyle;rounded=0;orthogonalLoop=1;jettySize=auto;html=1;exitX=0.5;exitY=1;exitDx=0;exitDy=0;entryX=0.5;entryY=0;entryDx=0;entryDy=0;" parent="1" source="0rWULEDfACyBqYcY1xk1-65" target="0rWULEDfACyBqYcY1xk1-66" edge="1">
          <mxGeometry relative="1" as="geometry" />
        </mxCell>
        <mxCell id="0rWULEDfACyBqYcY1xk1-65" value="EDGE&lt;div&gt;FROM: ETIM CLASS&lt;/div&gt;&lt;div&gt;TO: IFC TYPE&lt;/div&gt;" style="shape=parallelogram;html=1;strokeWidth=2;perimeter=parallelogramPerimeter;whiteSpace=wrap;rounded=1;arcSize=12;size=0.23;fillColor=#60a917;fontColor=#ffffff;strokeColor=#2D7600;" parent="1" vertex="1">
          <mxGeometry x="2077" y="1296" width="202" height="57" as="geometry" />
        </mxCell>
        <mxCell id="0rWULEDfACyBqYcY1xk1-66" value="EDGE&lt;div&gt;FROM: ETIM PROPERTY&lt;/div&gt;&lt;div&gt;TO: ETIM CLASS&lt;/div&gt;" style="shape=parallelogram;html=1;strokeWidth=2;perimeter=parallelogramPerimeter;whiteSpace=wrap;rounded=1;arcSize=12;size=0.23;fillColor=#60a917;fontColor=#ffffff;strokeColor=#2D7600;" parent="1" vertex="1">
          <mxGeometry x="2077" y="1374" width="202" height="57" as="geometry" />
        </mxCell>
        <mxCell id="0rWULEDfACyBqYcY1xk1-67" style="edgeStyle=orthogonalEdgeStyle;rounded=0;orthogonalLoop=1;jettySize=auto;html=1;exitX=0.5;exitY=1;exitDx=0;exitDy=0;entryX=0.5;entryY=0;entryDx=0;entryDy=0;" parent="1" source="0rWULEDfACyBqYcY1xk1-68" target="0rWULEDfACyBqYcY1xk1-69" edge="1">
          <mxGeometry relative="1" as="geometry" />
        </mxCell>
        <mxCell id="0rWULEDfACyBqYcY1xk1-68" value="ETIM PROPERTY" style="shape=parallelogram;html=1;strokeWidth=2;perimeter=parallelogramPerimeter;whiteSpace=wrap;rounded=1;arcSize=12;size=0.23;fillColor=#1ba1e2;fontColor=#ffffff;strokeColor=#006EAF;" parent="1" vertex="1">
          <mxGeometry x="2394" y="1168" width="202" height="33" as="geometry" />
        </mxCell>
        <mxCell id="0rWULEDfACyBqYcY1xk1-69" value="EDGE&lt;div&gt;FROM: ETIM PROPERTY&lt;/div&gt;&lt;div&gt;TO: ETIM CLASS&lt;/div&gt;" style="shape=parallelogram;html=1;strokeWidth=2;perimeter=parallelogramPerimeter;whiteSpace=wrap;rounded=1;arcSize=12;size=0.23;fillColor=#60a917;fontColor=#ffffff;strokeColor=#2D7600;" parent="1" vertex="1">
          <mxGeometry x="2394" y="1296" width="202" height="57" as="geometry" />
        </mxCell>
        <mxCell id="0rWULEDfACyBqYcY1xk1-70" style="edgeStyle=orthogonalEdgeStyle;rounded=0;orthogonalLoop=1;jettySize=auto;html=1;exitX=0.5;exitY=1;exitDx=0;exitDy=0;entryX=0.5;entryY=0;entryDx=0;entryDy=0;" parent="1" source="0rWULEDfACyBqYcY1xk1-71" target="0rWULEDfACyBqYcY1xk1-73" edge="1">
          <mxGeometry relative="1" as="geometry" />
        </mxCell>
        <mxCell id="0rWULEDfACyBqYcY1xk1-71" value="IFC PSET" style="shape=parallelogram;html=1;strokeWidth=2;perimeter=parallelogramPerimeter;whiteSpace=wrap;rounded=1;arcSize=12;size=0.23;fillColor=#1ba1e2;fontColor=#ffffff;strokeColor=#006EAF;" parent="1" vertex="1">
          <mxGeometry x="2634" y="1167" width="202" height="33" as="geometry" />
        </mxCell>
        <mxCell id="0rWULEDfACyBqYcY1xk1-72" style="edgeStyle=orthogonalEdgeStyle;rounded=0;orthogonalLoop=1;jettySize=auto;html=1;exitX=0.5;exitY=1;exitDx=0;exitDy=0;entryX=0.5;entryY=0;entryDx=0;entryDy=0;" parent="1" source="0rWULEDfACyBqYcY1xk1-73" target="0rWULEDfACyBqYcY1xk1-75" edge="1">
          <mxGeometry relative="1" as="geometry" />
        </mxCell>
        <mxCell id="0rWULEDfACyBqYcY1xk1-73" value="IFC PROPERTY" style="shape=parallelogram;html=1;strokeWidth=2;perimeter=parallelogramPerimeter;whiteSpace=wrap;rounded=1;arcSize=12;size=0.23;fillColor=#1ba1e2;fontColor=#ffffff;strokeColor=#006EAF;" parent="1" vertex="1">
          <mxGeometry x="2634" y="1221" width="202" height="33" as="geometry" />
        </mxCell>
        <mxCell id="0rWULEDfACyBqYcY1xk1-74" style="edgeStyle=orthogonalEdgeStyle;rounded=0;orthogonalLoop=1;jettySize=auto;html=1;exitX=0.5;exitY=1;exitDx=0;exitDy=0;entryX=0.5;entryY=0;entryDx=0;entryDy=0;" parent="1" source="0rWULEDfACyBqYcY1xk1-75" target="0rWULEDfACyBqYcY1xk1-76" edge="1">
          <mxGeometry relative="1" as="geometry" />
        </mxCell>
        <mxCell id="0rWULEDfACyBqYcY1xk1-75" value="EDGE&lt;div&gt;FROM: IFC PSET&lt;/div&gt;&lt;div&gt;TO: IFC TYPE&lt;/div&gt;" style="shape=parallelogram;html=1;strokeWidth=2;perimeter=parallelogramPerimeter;whiteSpace=wrap;rounded=1;arcSize=12;size=0.23;fillColor=#60a917;fontColor=#ffffff;strokeColor=#2D7600;" parent="1" vertex="1">
          <mxGeometry x="2633.5" y="1296" width="202" height="57" as="geometry" />
        </mxCell>
        <mxCell id="0rWULEDfACyBqYcY1xk1-76" value="EDGE&lt;div&gt;FROM: ETIM PROPERTY&lt;/div&gt;&lt;div&gt;TO: IFC PSET&lt;/div&gt;" style="shape=parallelogram;html=1;strokeWidth=2;perimeter=parallelogramPerimeter;whiteSpace=wrap;rounded=1;arcSize=12;size=0.23;fillColor=#60a917;fontColor=#ffffff;strokeColor=#2D7600;" parent="1" vertex="1">
          <mxGeometry x="2634" y="1378" width="202" height="57" as="geometry" />
        </mxCell>
        <mxCell id="0rWULEDfACyBqYcY1xk1-77" style="edgeStyle=orthogonalEdgeStyle;rounded=0;orthogonalLoop=1;jettySize=auto;html=1;exitX=0.5;exitY=1;exitDx=0;exitDy=0;entryX=0.5;entryY=0;entryDx=0;entryDy=0;" parent="1" source="0rWULEDfACyBqYcY1xk1-78" target="0rWULEDfACyBqYcY1xk1-79" edge="1">
          <mxGeometry relative="1" as="geometry" />
        </mxCell>
        <mxCell id="0rWULEDfACyBqYcY1xk1-78" value="IFC PROPERTY" style="shape=parallelogram;html=1;strokeWidth=2;perimeter=parallelogramPerimeter;whiteSpace=wrap;rounded=1;arcSize=12;size=0.23;fillColor=#1ba1e2;fontColor=#ffffff;strokeColor=#006EAF;" parent="1" vertex="1">
          <mxGeometry x="2942" y="1163" width="202" height="33" as="geometry" />
        </mxCell>
        <mxCell id="0rWULEDfACyBqYcY1xk1-79" value="EDGE&lt;div&gt;FROM: IFC PROPERTY&lt;/div&gt;&lt;div&gt;TO: IFC PSET&lt;/div&gt;" style="shape=parallelogram;html=1;strokeWidth=2;perimeter=parallelogramPerimeter;whiteSpace=wrap;rounded=1;arcSize=12;size=0.23;fillColor=#60a917;fontColor=#ffffff;strokeColor=#2D7600;" parent="1" vertex="1">
          <mxGeometry x="2942" y="1296" width="202" height="57" as="geometry" />
        </mxCell>
        <mxCell id="0rWULEDfACyBqYcY1xk1-80" style="edgeStyle=orthogonalEdgeStyle;rounded=0;orthogonalLoop=1;jettySize=auto;html=1;entryX=0.5;entryY=0;entryDx=0;entryDy=0;entryPerimeter=0;" parent="1" source="0rWULEDfACyBqYcY1xk1-49" target="0rWULEDfACyBqYcY1xk1-59" edge="1">
          <mxGeometry relative="1" as="geometry" />
        </mxCell>
        <mxCell id="0rWULEDfACyBqYcY1xk1-107" value="&lt;font style=&quot;font-size: 30px;&quot;&gt;&lt;b&gt;YES&lt;/b&gt;&lt;/font&gt;" style="edgeLabel;html=1;align=center;verticalAlign=middle;resizable=0;points=[];" parent="0rWULEDfACyBqYcY1xk1-80" vertex="1" connectable="0">
          <mxGeometry x="-0.3832" relative="1" as="geometry">
            <mxPoint y="1" as="offset" />
          </mxGeometry>
        </mxCell>
        <mxCell id="0rWULEDfACyBqYcY1xk1-81" style="edgeStyle=orthogonalEdgeStyle;rounded=0;orthogonalLoop=1;jettySize=auto;html=1;exitX=1;exitY=0.5;exitDx=0;exitDy=0;exitPerimeter=0;entryX=0.5;entryY=0;entryDx=0;entryDy=0;entryPerimeter=0;" parent="1" source="0rWULEDfACyBqYcY1xk1-51" target="0rWULEDfACyBqYcY1xk1-55" edge="1">
          <mxGeometry relative="1" as="geometry" />
        </mxCell>
        <mxCell id="0rWULEDfACyBqYcY1xk1-108" value="&lt;font style=&quot;font-size: 30px;&quot;&gt;&lt;b&gt;YES&lt;/b&gt;&lt;/font&gt;" style="edgeLabel;html=1;align=center;verticalAlign=middle;resizable=0;points=[];" parent="0rWULEDfACyBqYcY1xk1-81" vertex="1" connectable="0">
          <mxGeometry x="-0.3242" relative="1" as="geometry">
            <mxPoint x="-1" as="offset" />
          </mxGeometry>
        </mxCell>
        <mxCell id="0rWULEDfACyBqYcY1xk1-82" style="edgeStyle=orthogonalEdgeStyle;rounded=0;orthogonalLoop=1;jettySize=auto;html=1;exitX=1;exitY=0.5;exitDx=0;exitDy=0;exitPerimeter=0;entryX=0.5;entryY=0;entryDx=0;entryDy=0;entryPerimeter=0;" parent="1" source="30pxRHg9Fm9ib9L_n-xo-10" target="0rWULEDfACyBqYcY1xk1-49" edge="1">
          <mxGeometry relative="1" as="geometry" />
        </mxCell>
        <mxCell id="0rWULEDfACyBqYcY1xk1-90" value="&lt;font style=&quot;font-size: 30px;&quot;&gt;&lt;b&gt;TYPE&lt;/b&gt;&lt;/font&gt;" style="edgeLabel;html=1;align=center;verticalAlign=middle;resizable=0;points=[];" parent="0rWULEDfACyBqYcY1xk1-82" vertex="1" connectable="0">
          <mxGeometry x="-0.0292" relative="1" as="geometry">
            <mxPoint x="-1" as="offset" />
          </mxGeometry>
        </mxCell>
        <mxCell id="0rWULEDfACyBqYcY1xk1-83" value="&lt;b&gt;&lt;font style=&quot;font-size: 20px;&quot;&gt;LOOP:&lt;/font&gt;&lt;/b&gt;&lt;div&gt;&lt;b&gt;Technical parameter iteration&lt;/b&gt;&lt;/div&gt;" style="strokeWidth=2;html=1;shape=mxgraph.flowchart.start_2;whiteSpace=wrap;fillColor=#d80073;fontColor=#ffffff;strokeColor=#A50040;" parent="1" vertex="1">
          <mxGeometry x="953" y="165" width="100" height="100" as="geometry" />
        </mxCell>
        <mxCell id="0rWULEDfACyBqYcY1xk1-84" style="edgeStyle=orthogonalEdgeStyle;rounded=0;orthogonalLoop=1;jettySize=auto;html=1;entryX=0.5;entryY=0;entryDx=0;entryDy=0;entryPerimeter=0;" parent="1" source="0rWULEDfACyBqYcY1xk1-83" target="30pxRHg9Fm9ib9L_n-xo-1" edge="1">
          <mxGeometry relative="1" as="geometry" />
        </mxCell>
        <mxCell id="0rWULEDfACyBqYcY1xk1-85" style="edgeStyle=orthogonalEdgeStyle;rounded=0;orthogonalLoop=1;jettySize=auto;html=1;exitX=1;exitY=0.5;exitDx=0;exitDy=0;exitPerimeter=0;entryX=0;entryY=0.5;entryDx=0;entryDy=0;" parent="1" source="0rWULEDfACyBqYcY1xk1-83" target="OD9x9PNWOuHDUIbQJd1Z-1" edge="1">
          <mxGeometry relative="1" as="geometry" />
        </mxCell>
        <mxCell id="0rWULEDfACyBqYcY1xk1-86" style="edgeStyle=orthogonalEdgeStyle;rounded=0;orthogonalLoop=1;jettySize=auto;html=1;exitX=0.5;exitY=1;exitDx=0;exitDy=0;entryX=0.5;entryY=1;entryDx=0;entryDy=0;entryPerimeter=0;dashed=1;dashPattern=12 12;" parent="1" source="30pxRHg9Fm9ib9L_n-xo-9" target="0rWULEDfACyBqYcY1xk1-4" edge="1">
          <mxGeometry relative="1" as="geometry">
            <Array as="points">
              <mxPoint x="224" y="1505" />
              <mxPoint x="870" y="1505" />
            </Array>
          </mxGeometry>
        </mxCell>
        <mxCell id="u5JIoC_9zxZFoy5GMLDi-7" value="&lt;font style=&quot;font-size: 20px; color: rgb(128, 128, 128);&quot;&gt;CHECK&lt;/font&gt;" style="edgeLabel;html=1;align=center;verticalAlign=middle;resizable=0;points=[];" parent="0rWULEDfACyBqYcY1xk1-86" vertex="1" connectable="0">
          <mxGeometry x="0.6713" relative="1" as="geometry">
            <mxPoint as="offset" />
          </mxGeometry>
        </mxCell>
        <mxCell id="0rWULEDfACyBqYcY1xk1-87" style="edgeStyle=orthogonalEdgeStyle;rounded=0;orthogonalLoop=1;jettySize=auto;html=1;entryX=0.5;entryY=1;entryDx=0;entryDy=0;entryPerimeter=0;exitX=0.5;exitY=1;exitDx=0;exitDy=0;dashed=1;dashPattern=8 8;" parent="1" source="30pxRHg9Fm9ib9L_n-xo-9" target="0rWULEDfACyBqYcY1xk1-12" edge="1">
          <mxGeometry relative="1" as="geometry">
            <mxPoint x="245" y="1506" as="sourcePoint" />
            <mxPoint x="1446.5" y="1374.0000000000005" as="targetPoint" />
            <Array as="points">
              <mxPoint x="224" y="1505" />
              <mxPoint x="1426" y="1505" />
            </Array>
          </mxGeometry>
        </mxCell>
        <mxCell id="u5JIoC_9zxZFoy5GMLDi-8" value="&lt;font style=&quot;color: rgb(128, 128, 128); font-size: 20px;&quot;&gt;CHECK&lt;/font&gt;" style="edgeLabel;html=1;align=center;verticalAlign=middle;resizable=0;points=[];" parent="0rWULEDfACyBqYcY1xk1-87" vertex="1" connectable="0">
          <mxGeometry x="0.7573" y="-1" relative="1" as="geometry">
            <mxPoint y="1" as="offset" />
          </mxGeometry>
        </mxCell>
        <mxCell id="0rWULEDfACyBqYcY1xk1-89" style="edgeStyle=orthogonalEdgeStyle;rounded=0;orthogonalLoop=1;jettySize=auto;html=1;entryX=0.5;entryY=1;entryDx=0;entryDy=0;entryPerimeter=0;dashed=1;dashPattern=12 12;" parent="1" source="30pxRHg9Fm9ib9L_n-xo-9" target="0rWULEDfACyBqYcY1xk1-59" edge="1">
          <mxGeometry relative="1" as="geometry">
            <Array as="points">
              <mxPoint x="224" y="1506" />
              <mxPoint x="2890" y="1506" />
            </Array>
          </mxGeometry>
        </mxCell>
        <mxCell id="u5JIoC_9zxZFoy5GMLDi-10" value="&lt;font style=&quot;font-size: 20px; color: rgb(128, 128, 128);&quot;&gt;CHECK&lt;/font&gt;" style="edgeLabel;html=1;align=center;verticalAlign=middle;resizable=0;points=[];" parent="0rWULEDfACyBqYcY1xk1-89" vertex="1" connectable="0">
          <mxGeometry x="0.8567" relative="1" as="geometry">
            <mxPoint y="1" as="offset" />
          </mxGeometry>
        </mxCell>
        <mxCell id="u5JIoC_9zxZFoy5GMLDi-11" value="&lt;font style=&quot;color: rgb(128, 128, 128); font-size: 15px;&quot;&gt;(UPDATE DICTIONARY)&lt;/font&gt;" style="text;html=1;align=center;verticalAlign=middle;whiteSpace=wrap;rounded=0;strokeWidth=5;" parent="1" vertex="1">
          <mxGeometry x="729" y="1107.5" width="150" height="55.5" as="geometry" />
        </mxCell>
        <mxCell id="u5JIoC_9zxZFoy5GMLDi-12" value="&lt;font style=&quot;color: rgb(128, 128, 128); font-size: 15px;&quot;&gt;(UPDATE DICTIONARY)&lt;/font&gt;" style="text;html=1;align=center;verticalAlign=middle;whiteSpace=wrap;rounded=0;strokeWidth=5;" parent="1" vertex="1">
          <mxGeometry x="1280" y="1112.5" width="150" height="55.5" as="geometry" />
        </mxCell>
        <mxCell id="u5JIoC_9zxZFoy5GMLDi-13" value="&lt;font style=&quot;color: rgb(128, 128, 128); font-size: 15px;&quot;&gt;(UPDATE DICTIONARY)&lt;/font&gt;" style="text;html=1;align=center;verticalAlign=middle;whiteSpace=wrap;rounded=0;strokeWidth=5;" parent="1" vertex="1">
          <mxGeometry x="2184" y="1106.5" width="150" height="55.5" as="geometry" />
        </mxCell>
        <mxCell id="u5JIoC_9zxZFoy5GMLDi-14" value="&lt;font style=&quot;color: rgb(128, 128, 128); font-size: 15px;&quot;&gt;(UPDATE DICTIONARY)&lt;/font&gt;" style="text;html=1;align=center;verticalAlign=middle;whiteSpace=wrap;rounded=0;strokeWidth=5;" parent="1" vertex="1">
          <mxGeometry x="2739" y="1111.5" width="150" height="55.5" as="geometry" />
        </mxCell>
        <mxCell id="u5JIoC_9zxZFoy5GMLDi-15" value="&lt;font style=&quot;color: rgb(128, 128, 128); font-size: 15px;&quot;&gt;(EXISTING IFC PSET &amp;amp; ETIM CLASSES)&lt;/font&gt;" style="text;html=1;align=center;verticalAlign=middle;whiteSpace=wrap;rounded=0;strokeWidth=5;" parent="1" vertex="1">
          <mxGeometry x="245" y="1071.5" width="161" height="55.5" as="geometry" />
        </mxCell>
        <mxCell id="R6eL3yzRtGYfrv0uHi_O-4" style="edgeStyle=orthogonalEdgeStyle;rounded=0;orthogonalLoop=1;jettySize=auto;html=1;exitX=0.5;exitY=1;exitDx=0;exitDy=0;entryX=0.5;entryY=0;entryDx=0;entryDy=0;" parent="1" source="OD9x9PNWOuHDUIbQJd1Z-1" target="R6eL3yzRtGYfrv0uHi_O-1" edge="1">
          <mxGeometry relative="1" as="geometry" />
        </mxCell>
        <mxCell id="OD9x9PNWOuHDUIbQJd1Z-1" value="&lt;font style=&quot;&quot;&gt;&lt;span style=&quot;font-size: 20px;&quot;&gt;&lt;b&gt;USER SELECTION:&lt;/b&gt;&lt;/span&gt;&lt;br&gt;&lt;font style=&quot;font-size: 15px;&quot;&gt;TYPE&lt;/font&gt;&lt;/font&gt;&lt;div&gt;&lt;font style=&quot;font-size: 15px;&quot;&gt;MATERIAL&lt;/font&gt;&lt;/div&gt;" style="rounded=1;whiteSpace=wrap;html=1;absoluteArcSize=1;arcSize=14;strokeWidth=2;fillColor=#f0a30a;fontColor=#000000;strokeColor=#BD7000;" parent="1" vertex="1">
          <mxGeometry x="1301" y="177" width="229" height="76" as="geometry" />
        </mxCell>
        <mxCell id="OD9x9PNWOuHDUIbQJd1Z-2" style="edgeStyle=orthogonalEdgeStyle;rounded=0;orthogonalLoop=1;jettySize=auto;html=1;exitX=1;exitY=0.5;exitDx=0;exitDy=0;entryX=0.5;entryY=0;entryDx=0;entryDy=0;entryPerimeter=0;" parent="1" source="OD9x9PNWOuHDUIbQJd1Z-1" target="30pxRHg9Fm9ib9L_n-xo-16" edge="1">
          <mxGeometry relative="1" as="geometry" />
        </mxCell>
        <mxCell id="R6eL3yzRtGYfrv0uHi_O-1" value="SELECTION DICTIONARY" style="shape=parallelogram;html=1;strokeWidth=2;perimeter=parallelogramPerimeter;whiteSpace=wrap;rounded=1;arcSize=12;size=0.23;fillColor=#6a00ff;fontColor=#ffffff;strokeColor=#3700CC;" parent="1" vertex="1">
          <mxGeometry x="1293.25" y="345" width="244.5" height="41" as="geometry" />
        </mxCell>
        <mxCell id="sVGYuN38lV3i6G-16XRh-1" value="" style="shape=image;verticalLabelPosition=bottom;labelBackgroundColor=default;verticalAlign=top;aspect=fixed;imageAspect=0;image=data:image/png,iVBORw0KGgoAAAANSUhEUgAAADAAAAAwCAYAAABXAvmHAAAACXBIWXMAAAsTAAALEwEAmpwYAAAKAklEQVR4nO2Ya2wcVxXHI1FUtWqTxo7tXe/7NTszOzszu7NPG1HEQ3zoB6hALUICtRJ8oaoEQkiVQCAB4hOqoCDagFq1NK2aNk6KnYdjx+/H+v1ae71rr9feXTc0TR1i5504+aNzZ+3EdaKitfjmK/10Zufec879n3PvOMqePbtjd+yO3bE7/l+jo6rqsU6Ra0rIvrVh1Y+RgKITJCtjRJUxpPgxJEsYZPiQ8ItI+AX0Sxvw6CN8Ov1kRZ1e3wZe9BAij27Ri26RQ6fIrbbznkbaQ9kC2jhXIyUfUf0YD6qYDAeRDGtIRjRMkw3pv6dCASQ1QsUkrdMUTAZ1JoKyTkDGeImJgIJxIkhWxhhDL8qQKmFI0YvRL4noELjGsgWc8TjWqIpU6UktgJmIhtlIGOloGHPRMDIlOxcN6b8jIWTCGjKRu6TDwbuEyNI7DbPhIFJhDamSnQkHMR0KYkoLsGKNkhhFQrckrO1EADsGY0GZBZ+lzcYimI9HkKuLIhePYvEzNheLbGMhGsYC2Y3fsQiyZOO6zcYobhjpWBipSIh1dSKkYjggo98vomwBrR47O8PU5ulQgFU+G6ONxrBUF0O+LoYCs9FNm4/HkI9HUYjTcxT52D2U3i0xIswukuh4FFkiFmE5qNPUCep8v18oX0AL6wCPsYAfM0xAiCXK1cewVK8LKNbHUKiPolBPz1EU6R0TFMUy2XgURRJUdxfyy9frdqlO795iXQwLdVFkWBf0e0V3om9HAlw29ItejAf8mNZUzEU1LMTCWKyLlKpOm6QNx9hmGfEo1t54Hbh9G5tjfR0XX/kzm1uuizBBJLJYEkixlur0IzUfC7H7kQypGFH87CtVtoBmlxV9IocxRWJfmEwkiGw0jFw8gnw8wgQU6yIoxCOlzUfw0ZP1WF9bw507d7awvrKC5S/F2JoNnyJZ1hHqgH436INAF3tKU/RLLHLlCzjltKBX9GBUEZEMypiNqMhGNOTiIeQZYRSIWAjFeBjLsRBWfvXSts1v8OlPX0QxFkIhrlOsC7MYS/EwFuMhLMRCyESDmAmpmAj6MSCL6ODdOxDgMKNHcGPUL2Aq4Ec6pGI+EsRCNIjFqIalqIZCiSIjiCtdHbh9+859uXziOFvDfGK631JUY7EWSmTCAcxoCsZVCQmJRxvnLF/ASYcJ3V4Xhv0CJlUJs5qMuVAA2XAAi5EgI88IoBAJYvmrT+LW1WtYX799X25duozik/W6TzSAPG2+FIeKMs/+ViiYDsoYV3zs/tGXsGwBJ+y16OScGJK8mFBEzAT9yARlzGsqciEVCyEFS2EVi5qCfEjFp7//7QM3v8H5X76ExZDCWAqryIUDWAgHkA2pyIQUpDQZU6oPo7KAXsGNFre1fAHHbUZ0cg4M+jiM+3nMqD7MBv2Y0/zIBv3IajJymowFTcZi0I/LQ0O4dWt9k+uFAq5/cn7Lu0tdXcgF/cwnp8ksBjGnyUhrMlIBiRVrROLRzTvR7DSXL6DJakC7x4YE3QPJiynqguJDOiBhrkSW4cPSN7+Om9dv4ubN9U0uvP0WLh47uuXdjWs3sPS1LzOfhYCE+VKcTEBCSpWQVESM+XkMih50cA6ctJvKF9BorUG724qE4MKwxGFK4TGtiEipItKKiDlVxLwqYk4RcO7lP+LGjVtbKP74eXz0sxe3vf/4D7/DnCrovhSLOqv6WIeTCs+KNSC60eGxgU5B+QIs1TjjsqCPd2JIdGPC70WSjpLCY1bmkVYEZBQeGZnHanIa167d2OTKyn8wr0nIRlVcXb20ZW51dARpmcecoseYVQSkFAHTsoBJvxcjPg8SvIsVb0cCPrRUo9VlRo/XgUHBhTHJg0k/h6TMYUb2MlKyF/PffgpXrlzfwieNjZiV3IyV9vZt8/NPfYP5EskSk7KX5aBi9fJOtLotaLQayhdw1FzFBHRzdiR4J6vMuI/DlORFUvJiWuIwI3E4++rfcOnStS3kf/FzzIhuRuE3v942v/ynl5GSOBZjmu6X5MW45MWoz4MBwYUezoFWpwUfWmrKF3DMXIXTThO6SIDgxLDowhgT4cGkz4MpnxtTkgcXMlmsrV29y8XLSNWHkRScjNRX6rfOr13FhdkM86UYFGtC8rDYw6Ib/bwT3V47WpxmHLNU76QDB9DsqEWnx4o+zo5BwYkRwYVR0YkJ0YUJwYX095/FxYtXtnB+cgaz33oK6RL0vJLJbluXfuZpFmecCiO62OaHBCf6vA6Ws9lhAp2CsgU0lAR0eCzo42wYEBwYIRGiE2OCA+OCE4U338SFC5fLIv/3f7AYY6ITo0yAi+Xo89qZgFMOE46ZD+ysA6ccRnS4LOghAbwDwyVGeTvG/Bw+zhZw/vxaWZybz2Nc8mCUFcaBIcGBBO9AL2dDp5sEGHcowFSJU3YD2t0mdHks6PfaMOi1Y5C3Ydhrw8yPnsO5cxd3xPRzP8QwTzHtGODtLEe3x4oOtxmn7EYcM+1QwEm7AW1OEzrdFvRyViSoE5wNQ5wV2XcP4+zZC1tYTudQGJm6L8uZpW3rFw69y2INeG1IeG0sR5fbgjaXCSfsBhzdiQC6AxTkjNOEDreFVaafs6GfEqoCCtmzKBZXtjD+7HeQcNVi4DPQu4nnf7BtfSF7FoMBEf1e+lBsVN+CM0yAEXSMy++AuRInbCUBLhO6PRb0uC3o81gw8eILyOfPb2ExnUc/b0O/03hfEj4nljLFbX4TL/wEfR4rejxUJAs6XGa0Ok0s944ENJgqcdxWgxZHLWtpp9vM2tvtNiP1/ofI5c5tIfXWO+hxGB5Ir8OA2feObPc7fAw9Hj02nX3K1VIS0LCzI1SJ49YadpFbnbqIdhd1oxaTf3kV8/P/3mQumUPiu0+j01GDLkfNpr33mezA957BXHJxi+/EK6+iw13LYlOOVqeRfYEoN+2hbAFHTBVotFbjlL0GzXYDWhwGnHEY0eY0os1hKFGDdnu1jq0abdYqtJG9H9YqfU1pfRv5OgwMikmxWx0GnLYbWE76x+SR2oryBXxg2o9jrAvVOGEjIdVotlWj2V6N0/ZqtNiq0GLT7WnCekDHUnl/SvMb61tKUKzmEpTjpK2a5aTcR2r3ly/gsHEfGmpJRAX+Za5Ao/kAmixEJZpIGGGq0DGT3c9oegAb8/raCjQxPz0Wi2k5wHJQLspJuQ8b9pUv4FDVY6vv1ezD+4Yn8IHxCRwxPoGGe2yDcR+OkkgDsRdHDXvRULMXRx4AzbE1jJKvkdiIp8emXJSTctMeyhbwxv6Hm96qeARvVz6Kf1Y+ikMH7qHyLu9UPoJDJd6ueASHHgCbK63TfR69yz2xKR9BuV/f93D5/73+1z17Hju494tNrz3+0OrBx7+A10oc/BxeewD/q99BZh9apdy0h7IF7I7dsTt2x+7Y8znjv3JT31i3BUfvAAAAAElFTkSuQmCC;" vertex="1" parent="1">
          <mxGeometry x="1390" y="510" width="71" height="71" as="geometry" />
        </mxCell>
        <mxCell id="sVGYuN38lV3i6G-16XRh-2" value="" style="shape=image;verticalLabelPosition=bottom;labelBackgroundColor=default;verticalAlign=top;aspect=fixed;imageAspect=0;image=data:image/png,iVBORw0KGgoAAAANSUhEUgAAADAAAAAwCAYAAABXAvmHAAAACXBIWXMAAAsTAAALEwEAmpwYAAAJsElEQVR4nO2YWWwb1xWGDbQBUseJYy0kJQ7JGXI2Docz5AxXJUCKNEhRFH3IS4A+FWiA9rXoQx+CAkVbBEEfC7Qo7DZFAsdAkNiWI8mWLGuxFlIbKUqkJGpfvStWJDm2vCj+i3tJyVGUJjCJ9kkX+HC4nHvO/c85vCPo0KGDdbAO1sE6WP+r1VldfaRbERv6NN/mUFBDOqgjbegFG9QxFNAxpPsxqKkY1FUMaD70+xVKUvWiT/VSmyDWJyPhk6mlrxXy3kvp9cm79CgyuhUJXYq00SELDeQMJQtoF4WGpF/BUMCPjBnAaMhANmxgLGx+BQO5UBBjZhC5UABZs4hRYNTQCwSJ1TASJOgFjAKZoI5hWhQNqYCGoWIxkqqCTq/YULKANtG9SSpIAmdDQYyHTeSjIUzFwpiOhjEVi1A7HQ0VbIRYE1MRE1NFOxkxnhAmkM9M5CMG8mETE0U7HiGFMWiejBGgOUlXe1TvZhkd8NARyBg6cvTwYUzHIpiJRzFfF8N8PIqFuigW6PuijUWwEI9gPv7EzsfCmIsRG6F2Lv7EzpJ4pCCxCCZjYUxEQjTXSCgAMrZkAkoXILiRVGVkghqt/lSkeJB4DIt1BZZfimG5bocoluMxLMejuyzFCizHiu/jUSx+jYV4FHPxKBUzFQ1jPGIiZwbpOCX93tIFtAkc7cBwUKPtnSaVJJWti2GJHPylGFZejmHlpR3iWKmL4UpdFCt10YKNFyHidin4L9M4UVoIEpN0kXQiHzHpKKWCGnrLEdDKs0j6JGSCfoyFAnSmZ2NhOhqLxcM8yGbxXWt7dRVbyQQ+f/cdXH3th7uCVmjHoliqIyIKIzUTCyFPL4YAUrqf3kxlCHChVxExHFAxZhIBBuZiISzEw1iMR7BUF8Hjx4+fiu2121h7509YjkewUhfBcl0hzgIRQH4PURMT5Mds6hjUfehWxNIFtHicSCgChnUFOVPHZDiI2aiJ+VgIS4R4+KkF7HD7nT9jJR6mMRbjYczHQ5gjN1zEwHgogBHDj35NQafMlyHA7UCPl0dK8yIX9GPSDGAmEsRcxMBi1KR8+eXjkni0eQdXXn+VxliImpgrMhUOYtzUkQmo6FNltIvu0gU0cwx6ZA9Sfi+yQT/ypobpcBAzEQMLRba3v9zDo/sPcOXVV7Dy6iu4+vqPcO3nb+LzD97H9qPtfb6rf/wDjTEfMTAbNTBDnhMhHTlDw7DuQ0KRcElgSxdwgbWjS3JjSJUwqisYD/oxZWiYDQUwFwpgPhT4RgFLpo5FU6d25/Wd5gv7fNf+dQLz4SDmSFHIJRHSMWFqyAZ8SGte9Hp5tPLOcgTUokvkMKCKGNG9GAv4kDdUTBsaZgw/Zk0Njx5t7+Hh1n0sGCplsWgJq395d5/v7eP/oDEI06aGSVPDRFDFiK4gpcrolt1ocTOlC2hy2dApsOj3Chj2y8hpCiYCPkwGVUwXefhwew8P7t3HnK5Q5gMK5op89t4/9/ne+P3bmCnGITEnAipyukJzDSgCOkUOZApKFtDotKJTcKLP60FKFZHVZIzrCvK6gkldwVRAwYMHj/Zw/+4WZnV5lzldxpVfv4WttfW9fht3MPdyFNMBBZOkswEfxgM+5HQZaVVCv8KjU3ChyVVThgCHFe0eBxIyhyGFx4gqYkyTMKHJyGsyJnUZW1sP9nLvPjYyGWxmMtjIjeHujRvf6HPl7d9hWpdojLwuY0KXMabJGPVLSPl49MludPBOkCkoWUCDw4I2D4NeicOAj0fGJ9IEOT8RUeDu3ftPxRc3b2HxV7/EpF9EXpMo45qEnCZhVJMwogoYVHgkZDfaeAcanGUI+JSx4pKHQY/EFsbIJ2CEiFAl5Cgi7tzZemrWxiYw8+YbmCAdpUjIqhIyqoS0T0C/14MekcMltwPnHNbSBZxjLGh129Etskh63RhSPEjTTggYVQVkfQI2N+/tZf0LXK+v3+XGpw24nR3b57dx/RbyP3kNWR+PUZ+AjCpg2CfQUU3KbnRLLFrdDOodltIF1DMWtHC1uCw4kZQ4DBIRXg+GvW5kFA9lff3uHj7/bANZicWoxO7aUZnD8okT+3yvnDyJkWKctOKhhyc5EhJHc7ZwdpxlqssRUIWLVIADvRK5TjkMed1Ie90Y9nJUyNraF3u4fWsdGclFGSlaQrYutM/31vgUMiSW4kaKCvDQHAmJpQKaOTvIGcoS0MzVoMPjQI/oQp/EYlBmMSSzSMsc0jKL1dXNPdy6voa06MDw1/GyWL25vs93WGaR8rIY8nIY8HJIyizN1ck7cIGrKV9AC2tDB29HN3keiC4MEBGSC6kiN2+u7+HG1c+Q4hmkBAZpoWAJuTd+tt938RqNQQpCCjMgs0hKLpqrk2fQzNag3l6OAHsVmlkb2t12dPEOJEQnkqIT/USI6MSg6MS1a2t7uLp8C6mAd5d0zEDurV9gOZ3d57t4sZ3GIPRLpMMu9IpOmqvdY8d51oazZQlgqnGBtaHNY6e/gx7R+RURBAdWVm6XTO63v8GA6EC/5ESCIJLqO3CZd9CcJPfZckaIbD7vsuGS205bSoL3Cg4kSDcEB5I8g6Wl1ZKYaW6jN1uCZ2ishOBEj+BEl+BAB8+gzW2nT+GyBJAROu+yopWrpS29zDPoIkJ4Bj28HT08g/n5m0/NxKmPkTB86PXY0csz6BVIcUhsBy0UyUWeP6R4Z8oZobNMJZpcVrSwNbjkLojo8NTiMsWOLk8txuqbMTNz/dvJryDfnsTIX/+Ovp/+GF2cDZfdNXR/AdLhWnR67DQHydXC1aDJacUZprJ0AaftlWhwWnCBteIiZ6Nc4mrQxtWgnbOhjbOhnbOig7WgnbWgw2VBm7Ma7cS6LNTueb3zHfElezgrjUNjuQtxWzkbvfmaWSvI32KnaytKF/CJ/RjOOSrRSEVY0Mxa0MJacLFIq6uacnHHOqsKOCrR+jXIZ7vf7+6xFPYV47WwVprjPGtBk9OCeqYSn9QeK13AxzUv4kztMdQzFWhgKtHAVKHJUYUmMlpMJc4Ta6/AeaYCTQT7MUrjf2Hne+JL99iJrUQjiUMK5ahCI1OFT5kKnGMqaO6PbUdLF3Cq+sjGR7ajIEI+qXkRp4mgr3C25mgB21Gcsb1QwPrtnN3xsxX2nqGQQhVini7mIjk/sh7Fh9VHNkoW8O9jzzZ+UHEYJysP42TVc5QPq57DKWIrD1NOFS2B+H1Y8YNvhfp8E1WF2Dt5iN/7FYfx3tFnS//3+t8OHTpy/IVnGo8///2N489/D/9PTpCcLzzTSM5QsoCDdbAO1sE6WIe+Y/0HCuQkp8kEbaQAAAAASUVORK5CYII=;" vertex="1" parent="1">
          <mxGeometry x="2197" y="506" width="71" height="71" as="geometry" />
        </mxCell>
        <mxCell id="sVGYuN38lV3i6G-16XRh-3" value="" style="shape=image;verticalLabelPosition=bottom;labelBackgroundColor=default;verticalAlign=top;aspect=fixed;imageAspect=0;image=data:image/png,iVBORw0KGgoAAAANSUhEUgAAADAAAAAwCAYAAABXAvmHAAAACXBIWXMAAAsTAAALEwEAmpwYAAABJElEQVR4nO2ZMUpDQRCG9yARdjSQylt4gxwjx/ACWuzYBOwEg2Jtr5XEQg+QwkIQDXkZk5iQMLJq8BExsK/Ytwv/Bz+87v3f7lQ7xgAAQLLsuemOdXJhnYyJRWPGfv/zynLRqlyenLzFLk5/M/RdggX8ySdQXn/SqyIQfWzov3FiKYIF6i5NG4EAQUAgEETdhSkVgV0WbV9O9fRhkZfAwdlEj+7mOhitdE0WAoe3H/r48lu6TBYC28hGYLFSvXlaav95mZ9A53qm+933r++T+3l+AlQKBBgCAoEyEAgBAgwBhQAlFAMBhoBCIITsBWxKj7tORsECfrlQd3Fax43Pw2+Ai5ZfLtRenuW1eTxpmMpbGpaef5+PPjYshT/5yuUBAMDE4BNbP7cfkvDChQAAAABJRU5ErkJggg==;" vertex="1" parent="1">
          <mxGeometry x="833" y="651" width="68" height="68" as="geometry" />
        </mxCell>
        <mxCell id="sVGYuN38lV3i6G-16XRh-4" value="" style="shape=image;verticalLabelPosition=bottom;labelBackgroundColor=default;verticalAlign=top;aspect=fixed;imageAspect=0;image=data:image/png,iVBORw0KGgoAAAANSUhEUgAAADAAAAAwCAYAAABXAvmHAAAACXBIWXMAAAsTAAALEwEAmpwYAAABJElEQVR4nO2ZMUpDQRCG9yARdjSQylt4gxwjx/ACWuzYBOwEg2Jtr5XEQg+QwkIQDXkZk5iQMLJq8BExsK/Ytwv/Bz+87v3f7lQ7xgAAQLLsuemOdXJhnYyJRWPGfv/zynLRqlyenLzFLk5/M/RdggX8ySdQXn/SqyIQfWzov3FiKYIF6i5NG4EAQUAgEETdhSkVgV0WbV9O9fRhkZfAwdlEj+7mOhitdE0WAoe3H/r48lu6TBYC28hGYLFSvXlaav95mZ9A53qm+933r++T+3l+AlQKBBgCAoEyEAgBAgwBhQAlFAMBhoBCIITsBWxKj7tORsECfrlQd3Fax43Pw2+Ai5ZfLtRenuW1eTxpmMpbGpaef5+PPjYshT/5yuUBAMDE4BNbP7cfkvDChQAAAABJRU5ErkJggg==;" vertex="1" parent="1">
          <mxGeometry x="1259" y="651" width="68" height="68" as="geometry" />
        </mxCell>
        <mxCell id="sVGYuN38lV3i6G-16XRh-5" value="" style="shape=image;verticalLabelPosition=bottom;labelBackgroundColor=default;verticalAlign=top;aspect=fixed;imageAspect=0;image=data:image/png,iVBORw0KGgoAAAANSUhEUgAAADAAAAAwCAYAAABXAvmHAAAACXBIWXMAAAsTAAALEwEAmpwYAAABJElEQVR4nO2ZMUpDQRCG9yARdjSQylt4gxwjx/ACWuzYBOwEg2Jtr5XEQg+QwkIQDXkZk5iQMLJq8BExsK/Ytwv/Bz+87v3f7lQ7xgAAQLLsuemOdXJhnYyJRWPGfv/zynLRqlyenLzFLk5/M/RdggX8ySdQXn/SqyIQfWzov3FiKYIF6i5NG4EAQUAgEETdhSkVgV0WbV9O9fRhkZfAwdlEj+7mOhitdE0WAoe3H/r48lu6TBYC28hGYLFSvXlaav95mZ9A53qm+933r++T+3l+AlQKBBgCAoEyEAgBAgwBhQAlFAMBhoBCIITsBWxKj7tORsECfrlQd3Fax43Pw2+Ai5ZfLtRenuW1eTxpmMpbGpaef5+PPjYshT/5yuUBAMDE4BNbP7cfkvDChQAAAABJRU5ErkJggg==;" vertex="1" parent="1">
          <mxGeometry x="2325" y="656" width="68" height="68" as="geometry" />
        </mxCell>
        <mxCell id="sVGYuN38lV3i6G-16XRh-6" value="" style="shape=image;verticalLabelPosition=bottom;labelBackgroundColor=default;verticalAlign=top;aspect=fixed;imageAspect=0;image=data:image/png,iVBORw0KGgoAAAANSUhEUgAAADAAAAAwCAYAAABXAvmHAAAACXBIWXMAAAsTAAALEwEAmpwYAAABJElEQVR4nO2ZMUpDQRCG9yARdjSQylt4gxwjx/ACWuzYBOwEg2Jtr5XEQg+QwkIQDXkZk5iQMLJq8BExsK/Ytwv/Bz+87v3f7lQ7xgAAQLLsuemOdXJhnYyJRWPGfv/zynLRqlyenLzFLk5/M/RdggX8ySdQXn/SqyIQfWzov3FiKYIF6i5NG4EAQUAgEETdhSkVgV0WbV9O9fRhkZfAwdlEj+7mOhitdE0WAoe3H/r48lu6TBYC28hGYLFSvXlaav95mZ9A53qm+933r++T+3l+AlQKBBgCAoEyEAgBAgwBhQAlFAMBhoBCIITsBWxKj7tORsECfrlQd3Fax43Pw2+Ai5ZfLtRenuW1eTxpmMpbGpaef5+PPjYshT/5yuUBAMDE4BNbP7cfkvDChQAAAABJRU5ErkJggg==;" vertex="1" parent="1">
          <mxGeometry x="2690" y="656" width="68" height="68" as="geometry" />
        </mxCell>
        <mxCell id="sVGYuN38lV3i6G-16XRh-7" value="" style="shape=image;verticalLabelPosition=bottom;labelBackgroundColor=default;verticalAlign=top;aspect=fixed;imageAspect=0;image=data:image/png,iVBORw0KGgoAAAANSUhEUgAAADAAAAAwCAYAAABXAvmHAAAACXBIWXMAAAsTAAALEwEAmpwYAAAB5ElEQVR4nO2Zy0rDQBSG8yAKGa0UXLhwI67deX0AfQB37tz4ElbJKKWIbgq9QKGCCoKKWwsKWsQLQnVRsVZMJ72lSY6MvaS1lpK0JCPOD/+mi/T7Zs60IREEHh4eHmYzLBUGRYlERYnkECbgZMXqd8ZELHttwyOJZJ0GR+39oCyWBejKMwAPtYbtCDg+NqjTOGEiWxZwGxr9KBdAXIBwAUv51wKz4TzE7iqQVgzQDIBswYDzZw2WD4vsC6yelEDVoWMCVyq7AnORPFSa4DUdICXroButEvORPJsC+w+VBmRJA5gOVUFXjostAusXZTYFXhVzqQ8eK43PPVvkezfqCSZVNgUW4wVYqnUqaI7J+I4CzVPkY3UHUIduJsoNeIPlM4B+6UK09WDH783RQqwLTOwq8JIz6en/wuSe8jcExgIKJDMmvKIaMBO2PjrIDYFRP4FEWmvA0xGiB7uXawpOCYxsEzhNmfA0a2elnsdRcEJgCBOI3Kot8P5Le7cOyA2Bjaafy3puMjpcv7WXSYGjJ/NWolu4QLf0Y277WcFq3AZGXAC7D424AP7DAiJLD3cl8mlnB2Jug6N6pVzI+g5g2UtfLrgOj8m7x5cfEGy/pcEkTJ/POz42mMh05W3D8/Dw8AhO5AtgYOdtLvwfMwAAAABJRU5ErkJggg==;" vertex="1" parent="1">
          <mxGeometry x="571" y="767" width="69.33" height="69.33" as="geometry" />
        </mxCell>
        <mxCell id="sVGYuN38lV3i6G-16XRh-8" value="" style="shape=image;verticalLabelPosition=bottom;labelBackgroundColor=default;verticalAlign=top;aspect=fixed;imageAspect=0;image=data:image/png,iVBORw0KGgoAAAANSUhEUgAAADAAAAAwCAYAAABXAvmHAAAACXBIWXMAAAsTAAALEwEAmpwYAAAB5ElEQVR4nO2Zy0rDQBSG8yAKGa0UXLhwI67deX0AfQB37tz4ElbJKKWIbgq9QKGCCoKKWwsKWsQLQnVRsVZMJ72lSY6MvaS1lpK0JCPOD/+mi/T7Zs60IREEHh4eHmYzLBUGRYlERYnkECbgZMXqd8ZELHttwyOJZJ0GR+39oCyWBejKMwAPtYbtCDg+NqjTOGEiWxZwGxr9KBdAXIBwAUv51wKz4TzE7iqQVgzQDIBswYDzZw2WD4vsC6yelEDVoWMCVyq7AnORPFSa4DUdICXroButEvORPJsC+w+VBmRJA5gOVUFXjostAusXZTYFXhVzqQ8eK43PPVvkezfqCSZVNgUW4wVYqnUqaI7J+I4CzVPkY3UHUIduJsoNeIPlM4B+6UK09WDH783RQqwLTOwq8JIz6en/wuSe8jcExgIKJDMmvKIaMBO2PjrIDYFRP4FEWmvA0xGiB7uXawpOCYxsEzhNmfA0a2elnsdRcEJgCBOI3Kot8P5Le7cOyA2Bjaafy3puMjpcv7WXSYGjJ/NWolu4QLf0Y277WcFq3AZGXAC7D424AP7DAiJLD3cl8mlnB2Jug6N6pVzI+g5g2UtfLrgOj8m7x5cfEGy/pcEkTJ/POz42mMh05W3D8/Dw8AhO5AtgYOdtLvwfMwAAAABJRU5ErkJggg==;" vertex="1" parent="1">
          <mxGeometry x="797" y="767" width="69.33" height="69.33" as="geometry" />
        </mxCell>
        <mxCell id="sVGYuN38lV3i6G-16XRh-9" value="" style="shape=image;verticalLabelPosition=bottom;labelBackgroundColor=default;verticalAlign=top;aspect=fixed;imageAspect=0;image=data:image/png,iVBORw0KGgoAAAANSUhEUgAAADAAAAAwCAYAAABXAvmHAAAACXBIWXMAAAsTAAALEwEAmpwYAAAB5ElEQVR4nO2Zy0rDQBSG8yAKGa0UXLhwI67deX0AfQB37tz4ElbJKKWIbgq9QKGCCoKKWwsKWsQLQnVRsVZMJ72lSY6MvaS1lpK0JCPOD/+mi/T7Zs60IREEHh4eHmYzLBUGRYlERYnkECbgZMXqd8ZELHttwyOJZJ0GR+39oCyWBejKMwAPtYbtCDg+NqjTOGEiWxZwGxr9KBdAXIBwAUv51wKz4TzE7iqQVgzQDIBswYDzZw2WD4vsC6yelEDVoWMCVyq7AnORPFSa4DUdICXroButEvORPJsC+w+VBmRJA5gOVUFXjostAusXZTYFXhVzqQ8eK43PPVvkezfqCSZVNgUW4wVYqnUqaI7J+I4CzVPkY3UHUIduJsoNeIPlM4B+6UK09WDH783RQqwLTOwq8JIz6en/wuSe8jcExgIKJDMmvKIaMBO2PjrIDYFRP4FEWmvA0xGiB7uXawpOCYxsEzhNmfA0a2elnsdRcEJgCBOI3Kot8P5Le7cOyA2Bjaafy3puMjpcv7WXSYGjJ/NWolu4QLf0Y277WcFq3AZGXAC7D424AP7DAiJLD3cl8mlnB2Jug6N6pVzI+g5g2UtfLrgOj8m7x5cfEGy/pcEkTJ/POz42mMh05W3D8/Dw8AhO5AtgYOdtLvwfMwAAAABJRU5ErkJggg==;" vertex="1" parent="1">
          <mxGeometry x="2035" y="765" width="69.33" height="69.33" as="geometry" />
        </mxCell>
        <mxCell id="sVGYuN38lV3i6G-16XRh-10" value="" style="shape=image;verticalLabelPosition=bottom;labelBackgroundColor=default;verticalAlign=top;aspect=fixed;imageAspect=0;image=data:image/png,iVBORw0KGgoAAAANSUhEUgAAADAAAAAwCAYAAABXAvmHAAAACXBIWXMAAAsTAAALEwEAmpwYAAAB5ElEQVR4nO2Zy0rDQBSG8yAKGa0UXLhwI67deX0AfQB37tz4ElbJKKWIbgq9QKGCCoKKWwsKWsQLQnVRsVZMJ72lSY6MvaS1lpK0JCPOD/+mi/T7Zs60IREEHh4eHmYzLBUGRYlERYnkECbgZMXqd8ZELHttwyOJZJ0GR+39oCyWBejKMwAPtYbtCDg+NqjTOGEiWxZwGxr9KBdAXIBwAUv51wKz4TzE7iqQVgzQDIBswYDzZw2WD4vsC6yelEDVoWMCVyq7AnORPFSa4DUdICXroButEvORPJsC+w+VBmRJA5gOVUFXjostAusXZTYFXhVzqQ8eK43PPVvkezfqCSZVNgUW4wVYqnUqaI7J+I4CzVPkY3UHUIduJsoNeIPlM4B+6UK09WDH783RQqwLTOwq8JIz6en/wuSe8jcExgIKJDMmvKIaMBO2PjrIDYFRP4FEWmvA0xGiB7uXawpOCYxsEzhNmfA0a2elnsdRcEJgCBOI3Kot8P5Le7cOyA2Bjaafy3puMjpcv7WXSYGjJ/NWolu4QLf0Y277WcFq3AZGXAC7D424AP7DAiJLD3cl8mlnB2Jug6N6pVzI+g5g2UtfLrgOj8m7x5cfEGy/pcEkTJ/POz42mMh05W3D8/Dw8AhO5AtgYOdtLvwfMwAAAABJRU5ErkJggg==;" vertex="1" parent="1">
          <mxGeometry x="2247" y="767" width="69.33" height="69.33" as="geometry" />
        </mxCell>
        <mxCell id="sVGYuN38lV3i6G-16XRh-11" value="" style="shape=image;verticalLabelPosition=bottom;labelBackgroundColor=default;verticalAlign=top;aspect=fixed;imageAspect=0;image=data:image/png,iVBORw0KGgoAAAANSUhEUgAAADAAAAAwCAYAAABXAvmHAAAACXBIWXMAAAsTAAALEwEAmpwYAAACP0lEQVR4nO2ZvWsUQRjG9w9R2DGHhwiKSAQrOztBFATBRrBQLGzSBiy0sFAQ3EmMBkUsNMZcCPGLIIIh6IEfYHleoUj8wpx3mb39yO3uI7PneTenBm7Q3beYB55mmnl+M+87M+xalpGRkRFZDTneRtsR07YjVhkXyNJ2e86SzRtF7fDMEStZB2e/uyazDAwgV55AePz0lA5A5mXD/lZOXDQGBsg7NOuzAWAGQBiAgZR3YGYAuN5Eh2c93Ku28KWZIEqAepDg5ecIZ5YCbJkgDjD2KsR6qqzEGL7m0gQ4Ou8pYeXqy8AiTJTxubctmgCzlZYS/sBdLx3fdtVNQToKI6B4mSDAvjtNHJnzUh8qtcN3PPF6TdmFnRplZP1vgPW8+CH6Ff6Tm2ATxRJiPd59w8W5ZyHOl0M8ed8NL7vh1IJPswdYj2UJ9ctdS3D8gV54RgFA6vlyhF3XiR6jrMdbr7hpUx+c8TD6NEDN7x6lb77G9HuA9fn0YqDsxP5pjx7A2aUgbVzpEw/VWj9231cATj7y6QG8q3cvK1kye2420/HCuMB8tXvJSXUuOUYJ4EJZfQd5LaC8HOGjUJ8SlVqMoTGCPbB5XChn/p8kX6h7b7V3hhwA4yJd2ZHHfrry8s0jFSdA9XuMSy9C7JjUO0JZXqfQ9kkXBY1yYVQA/qUtA8ANADIFsCl93HVEXWcHSnkHZx07q7cH3wHeKMqfC7mH5+Jb4WJzg6X9l4aLKfl9PvOy4aIhV147vJGRkZGVhX4AE3Hp5Sk2vBkAAAAASUVORK5CYII=;" vertex="1" parent="1">
          <mxGeometry x="733" y="903" width="71.83" height="71.83" as="geometry" />
        </mxCell>
        <mxCell id="sVGYuN38lV3i6G-16XRh-12" value="" style="shape=image;verticalLabelPosition=bottom;labelBackgroundColor=default;verticalAlign=top;aspect=fixed;imageAspect=0;image=data:image/png,iVBORw0KGgoAAAANSUhEUgAAADAAAAAwCAYAAABXAvmHAAAACXBIWXMAAAsTAAALEwEAmpwYAAACP0lEQVR4nO2ZvWsUQRjG9w9R2DGHhwiKSAQrOztBFATBRrBQLGzSBiy0sFAQ3EmMBkUsNMZcCPGLIIIh6IEfYHleoUj8wpx3mb39yO3uI7PneTenBm7Q3beYB55mmnl+M+87M+xalpGRkRFZDTneRtsR07YjVhkXyNJ2e86SzRtF7fDMEStZB2e/uyazDAwgV55AePz0lA5A5mXD/lZOXDQGBsg7NOuzAWAGQBiAgZR3YGYAuN5Eh2c93Ku28KWZIEqAepDg5ecIZ5YCbJkgDjD2KsR6qqzEGL7m0gQ4Ou8pYeXqy8AiTJTxubctmgCzlZYS/sBdLx3fdtVNQToKI6B4mSDAvjtNHJnzUh8qtcN3PPF6TdmFnRplZP1vgPW8+CH6Ff6Tm2ATxRJiPd59w8W5ZyHOl0M8ed8NL7vh1IJPswdYj2UJ9ctdS3D8gV54RgFA6vlyhF3XiR6jrMdbr7hpUx+c8TD6NEDN7x6lb77G9HuA9fn0YqDsxP5pjx7A2aUgbVzpEw/VWj9231cATj7y6QG8q3cvK1kye2420/HCuMB8tXvJSXUuOUYJ4EJZfQd5LaC8HOGjUJ8SlVqMoTGCPbB5XChn/p8kX6h7b7V3hhwA4yJd2ZHHfrry8s0jFSdA9XuMSy9C7JjUO0JZXqfQ9kkXBY1yYVQA/qUtA8ANADIFsCl93HVEXWcHSnkHZx07q7cH3wHeKMqfC7mH5+Jb4WJzg6X9l4aLKfl9PvOy4aIhV147vJGRkZGVhX4AE3Hp5Sk2vBkAAAAASUVORK5CYII=;" vertex="1" parent="1">
          <mxGeometry x="953" y="903" width="71.83" height="71.83" as="geometry" />
        </mxCell>
        <mxCell id="sVGYuN38lV3i6G-16XRh-13" value="" style="shape=image;verticalLabelPosition=bottom;labelBackgroundColor=default;verticalAlign=top;aspect=fixed;imageAspect=0;image=data:image/png,iVBORw0KGgoAAAANSUhEUgAAADAAAAAwCAYAAABXAvmHAAAACXBIWXMAAAsTAAALEwEAmpwYAAACP0lEQVR4nO2ZvWsUQRjG9w9R2DGHhwiKSAQrOztBFATBRrBQLGzSBiy0sFAQ3EmMBkUsNMZcCPGLIIIh6IEfYHleoUj8wpx3mb39yO3uI7PneTenBm7Q3beYB55mmnl+M+87M+xalpGRkRFZDTneRtsR07YjVhkXyNJ2e86SzRtF7fDMEStZB2e/uyazDAwgV55AePz0lA5A5mXD/lZOXDQGBsg7NOuzAWAGQBiAgZR3YGYAuN5Eh2c93Ku28KWZIEqAepDg5ecIZ5YCbJkgDjD2KsR6qqzEGL7m0gQ4Ou8pYeXqy8AiTJTxubctmgCzlZYS/sBdLx3fdtVNQToKI6B4mSDAvjtNHJnzUh8qtcN3PPF6TdmFnRplZP1vgPW8+CH6Ff6Tm2ATxRJiPd59w8W5ZyHOl0M8ed8NL7vh1IJPswdYj2UJ9ctdS3D8gV54RgFA6vlyhF3XiR6jrMdbr7hpUx+c8TD6NEDN7x6lb77G9HuA9fn0YqDsxP5pjx7A2aUgbVzpEw/VWj9231cATj7y6QG8q3cvK1kye2420/HCuMB8tXvJSXUuOUYJ4EJZfQd5LaC8HOGjUJ8SlVqMoTGCPbB5XChn/p8kX6h7b7V3hhwA4yJd2ZHHfrry8s0jFSdA9XuMSy9C7JjUO0JZXqfQ9kkXBY1yYVQA/qUtA8ANADIFsCl93HVEXWcHSnkHZx07q7cH3wHeKMqfC7mH5+Jb4WJzg6X9l4aLKfl9PvOy4aIhV147vJGRkZGVhX4AE3Hp5Sk2vBkAAAAASUVORK5CYII=;" vertex="1" parent="1">
          <mxGeometry x="1287" y="902" width="71.83" height="71.83" as="geometry" />
        </mxCell>
        <mxCell id="sVGYuN38lV3i6G-16XRh-14" value="" style="shape=image;verticalLabelPosition=bottom;labelBackgroundColor=default;verticalAlign=top;aspect=fixed;imageAspect=0;image=data:image/png,iVBORw0KGgoAAAANSUhEUgAAADAAAAAwCAYAAABXAvmHAAAACXBIWXMAAAsTAAALEwEAmpwYAAACP0lEQVR4nO2ZvWsUQRjG9w9R2DGHhwiKSAQrOztBFATBRrBQLGzSBiy0sFAQ3EmMBkUsNMZcCPGLIIIh6IEfYHleoUj8wpx3mb39yO3uI7PneTenBm7Q3beYB55mmnl+M+87M+xalpGRkRFZDTneRtsR07YjVhkXyNJ2e86SzRtF7fDMEStZB2e/uyazDAwgV55AePz0lA5A5mXD/lZOXDQGBsg7NOuzAWAGQBiAgZR3YGYAuN5Eh2c93Ku28KWZIEqAepDg5ecIZ5YCbJkgDjD2KsR6qqzEGL7m0gQ4Ou8pYeXqy8AiTJTxubctmgCzlZYS/sBdLx3fdtVNQToKI6B4mSDAvjtNHJnzUh8qtcN3PPF6TdmFnRplZP1vgPW8+CH6Ff6Tm2ATxRJiPd59w8W5ZyHOl0M8ed8NL7vh1IJPswdYj2UJ9ctdS3D8gV54RgFA6vlyhF3XiR6jrMdbr7hpUx+c8TD6NEDN7x6lb77G9HuA9fn0YqDsxP5pjx7A2aUgbVzpEw/VWj9231cATj7y6QG8q3cvK1kye2420/HCuMB8tXvJSXUuOUYJ4EJZfQd5LaC8HOGjUJ8SlVqMoTGCPbB5XChn/p8kX6h7b7V3hhwA4yJd2ZHHfrry8s0jFSdA9XuMSy9C7JjUO0JZXqfQ9kkXBY1yYVQA/qUtA8ANADIFsCl93HVEXWcHSnkHZx07q7cH3wHeKMqfC7mH5+Jb4WJzg6X9l4aLKfl9PvOy4aIhV147vJGRkZGVhX4AE3Hp5Sk2vBkAAAAASUVORK5CYII=;" vertex="1" parent="1">
          <mxGeometry x="1502" y="899" width="71.83" height="71.83" as="geometry" />
        </mxCell>
        <mxCell id="sVGYuN38lV3i6G-16XRh-15" value="" style="shape=image;verticalLabelPosition=bottom;labelBackgroundColor=default;verticalAlign=top;aspect=fixed;imageAspect=0;image=data:image/png,iVBORw0KGgoAAAANSUhEUgAAADAAAAAwCAYAAABXAvmHAAAACXBIWXMAAAsTAAALEwEAmpwYAAACP0lEQVR4nO2ZvWsUQRjG9w9R2DGHhwiKSAQrOztBFATBRrBQLGzSBiy0sFAQ3EmMBkUsNMZcCPGLIIIh6IEfYHleoUj8wpx3mb39yO3uI7PneTenBm7Q3beYB55mmnl+M+87M+xalpGRkRFZDTneRtsR07YjVhkXyNJ2e86SzRtF7fDMEStZB2e/uyazDAwgV55AePz0lA5A5mXD/lZOXDQGBsg7NOuzAWAGQBiAgZR3YGYAuN5Eh2c93Ku28KWZIEqAepDg5ecIZ5YCbJkgDjD2KsR6qqzEGL7m0gQ4Ou8pYeXqy8AiTJTxubctmgCzlZYS/sBdLx3fdtVNQToKI6B4mSDAvjtNHJnzUh8qtcN3PPF6TdmFnRplZP1vgPW8+CH6Ff6Tm2ATxRJiPd59w8W5ZyHOl0M8ed8NL7vh1IJPswdYj2UJ9ctdS3D8gV54RgFA6vlyhF3XiR6jrMdbr7hpUx+c8TD6NEDN7x6lb77G9HuA9fn0YqDsxP5pjx7A2aUgbVzpEw/VWj9231cATj7y6QG8q3cvK1kye2420/HCuMB8tXvJSXUuOUYJ4EJZfQd5LaC8HOGjUJ8SlVqMoTGCPbB5XChn/p8kX6h7b7V3hhwA4yJd2ZHHfrry8s0jFSdA9XuMSy9C7JjUO0JZXqfQ9kkXBY1yYVQA/qUtA8ANADIFsCl93HVEXWcHSnkHZx07q7cH3wHeKMqfC7mH5+Jb4WJzg6X9l4aLKfl9PvOy4aIhV147vJGRkZGVhX4AE3Hp5Sk2vBkAAAAASUVORK5CYII=;" vertex="1" parent="1">
          <mxGeometry x="2197" y="899" width="71.83" height="71.83" as="geometry" />
        </mxCell>
        <mxCell id="sVGYuN38lV3i6G-16XRh-16" value="" style="shape=image;verticalLabelPosition=bottom;labelBackgroundColor=default;verticalAlign=top;aspect=fixed;imageAspect=0;image=data:image/png,iVBORw0KGgoAAAANSUhEUgAAADAAAAAwCAYAAABXAvmHAAAACXBIWXMAAAsTAAALEwEAmpwYAAACP0lEQVR4nO2ZvWsUQRjG9w9R2DGHhwiKSAQrOztBFATBRrBQLGzSBiy0sFAQ3EmMBkUsNMZcCPGLIIIh6IEfYHleoUj8wpx3mb39yO3uI7PneTenBm7Q3beYB55mmnl+M+87M+xalpGRkRFZDTneRtsR07YjVhkXyNJ2e86SzRtF7fDMEStZB2e/uyazDAwgV55AePz0lA5A5mXD/lZOXDQGBsg7NOuzAWAGQBiAgZR3YGYAuN5Eh2c93Ku28KWZIEqAepDg5ecIZ5YCbJkgDjD2KsR6qqzEGL7m0gQ4Ou8pYeXqy8AiTJTxubctmgCzlZYS/sBdLx3fdtVNQToKI6B4mSDAvjtNHJnzUh8qtcN3PPF6TdmFnRplZP1vgPW8+CH6Ff6Tm2ATxRJiPd59w8W5ZyHOl0M8ed8NL7vh1IJPswdYj2UJ9ctdS3D8gV54RgFA6vlyhF3XiR6jrMdbr7hpUx+c8TD6NEDN7x6lb77G9HuA9fn0YqDsxP5pjx7A2aUgbVzpEw/VWj9231cATj7y6QG8q3cvK1kye2420/HCuMB8tXvJSXUuOUYJ4EJZfQd5LaC8HOGjUJ8SlVqMoTGCPbB5XChn/p8kX6h7b7V3hhwA4yJd2ZHHfrry8s0jFSdA9XuMSy9C7JjUO0JZXqfQ9kkXBY1yYVQA/qUtA8ANADIFsCl93HVEXWcHSnkHZx07q7cH3wHeKMqfC7mH5+Jb4WJzg6X9l4aLKfl9PvOy4aIhV147vJGRkZGVhX4AE3Hp5Sk2vBkAAAAASUVORK5CYII=;" vertex="1" parent="1">
          <mxGeometry x="2404" y="899" width="71.83" height="71.83" as="geometry" />
        </mxCell>
        <mxCell id="sVGYuN38lV3i6G-16XRh-17" value="" style="shape=image;verticalLabelPosition=bottom;labelBackgroundColor=default;verticalAlign=top;aspect=fixed;imageAspect=0;image=data:image/png,iVBORw0KGgoAAAANSUhEUgAAADAAAAAwCAYAAABXAvmHAAAACXBIWXMAAAsTAAALEwEAmpwYAAACP0lEQVR4nO2ZvWsUQRjG9w9R2DGHhwiKSAQrOztBFATBRrBQLGzSBiy0sFAQ3EmMBkUsNMZcCPGLIIIh6IEfYHleoUj8wpx3mb39yO3uI7PneTenBm7Q3beYB55mmnl+M+87M+xalpGRkRFZDTneRtsR07YjVhkXyNJ2e86SzRtF7fDMEStZB2e/uyazDAwgV55AePz0lA5A5mXD/lZOXDQGBsg7NOuzAWAGQBiAgZR3YGYAuN5Eh2c93Ku28KWZIEqAepDg5ecIZ5YCbJkgDjD2KsR6qqzEGL7m0gQ4Ou8pYeXqy8AiTJTxubctmgCzlZYS/sBdLx3fdtVNQToKI6B4mSDAvjtNHJnzUh8qtcN3PPF6TdmFnRplZP1vgPW8+CH6Ff6Tm2ATxRJiPd59w8W5ZyHOl0M8ed8NL7vh1IJPswdYj2UJ9ctdS3D8gV54RgFA6vlyhF3XiR6jrMdbr7hpUx+c8TD6NEDN7x6lb77G9HuA9fn0YqDsxP5pjx7A2aUgbVzpEw/VWj9231cATj7y6QG8q3cvK1kye2420/HCuMB8tXvJSXUuOUYJ4EJZfQd5LaC8HOGjUJ8SlVqMoTGCPbB5XChn/p8kX6h7b7V3hhwA4yJd2ZHHfrry8s0jFSdA9XuMSy9C7JjUO0JZXqfQ9kkXBY1yYVQA/qUtA8ANADIFsCl93HVEXWcHSnkHZx07q7cH3wHeKMqfC7mH5+Jb4WJzg6X9l4aLKfl9PvOy4aIhV147vJGRkZGVhX4AE3Hp5Sk2vBkAAAAASUVORK5CYII=;" vertex="1" parent="1">
          <mxGeometry x="2751" y="899" width="71.83" height="71.83" as="geometry" />
        </mxCell>
        <mxCell id="sVGYuN38lV3i6G-16XRh-18" value="" style="shape=image;verticalLabelPosition=bottom;labelBackgroundColor=default;verticalAlign=top;aspect=fixed;imageAspect=0;image=data:image/png,iVBORw0KGgoAAAANSUhEUgAAADAAAAAwCAYAAABXAvmHAAAACXBIWXMAAAsTAAALEwEAmpwYAAACP0lEQVR4nO2ZvWsUQRjG9w9R2DGHhwiKSAQrOztBFATBRrBQLGzSBiy0sFAQ3EmMBkUsNMZcCPGLIIIh6IEfYHleoUj8wpx3mb39yO3uI7PneTenBm7Q3beYB55mmnl+M+87M+xalpGRkRFZDTneRtsR07YjVhkXyNJ2e86SzRtF7fDMEStZB2e/uyazDAwgV55AePz0lA5A5mXD/lZOXDQGBsg7NOuzAWAGQBiAgZR3YGYAuN5Eh2c93Ku28KWZIEqAepDg5ecIZ5YCbJkgDjD2KsR6qqzEGL7m0gQ4Ou8pYeXqy8AiTJTxubctmgCzlZYS/sBdLx3fdtVNQToKI6B4mSDAvjtNHJnzUh8qtcN3PPF6TdmFnRplZP1vgPW8+CH6Ff6Tm2ATxRJiPd59w8W5ZyHOl0M8ed8NL7vh1IJPswdYj2UJ9ctdS3D8gV54RgFA6vlyhF3XiR6jrMdbr7hpUx+c8TD6NEDN7x6lb77G9HuA9fn0YqDsxP5pjx7A2aUgbVzpEw/VWj9231cATj7y6QG8q3cvK1kye2420/HCuMB8tXvJSXUuOUYJ4EJZfQd5LaC8HOGjUJ8SlVqMoTGCPbB5XChn/p8kX6h7b7V3hhwA4yJd2ZHHfrry8s0jFSdA9XuMSy9C7JjUO0JZXqfQ9kkXBY1yYVQA/qUtA8ANADIFsCl93HVEXWcHSnkHZx07q7cH3wHeKMqfC7mH5+Jb4WJzg6X9l4aLKfl9PvOy4aIhV147vJGRkZGVhX4AE3Hp5Sk2vBkAAAAASUVORK5CYII=;" vertex="1" parent="1">
          <mxGeometry x="2962" y="899" width="71.83" height="71.83" as="geometry" />
        </mxCell>
      </root>
    </mxGraphModel>
  </diagram>
</mxfile>
